<svg width="622" height="414" viewBox="0 0 622 414" fill="none" xmlns="http://www.w3.org/2000/svg">
<g clip-path="url(#clip0_1384_34067)">
<path fill-rule="evenodd" clip-rule="evenodd" d="M205.739 189.46C217.015 189.46 211.739 171.56 197.453 175.835C196.662 150.982 156.193 132.797 139.458 166.319C134.727 162.571 124.103 169.65 126.456 175.835C121.2 176.284 117.066 176.893 113.849 177.698C106.421 179.56 107.892 189.376 115.548 189.308L205.739 189.46Z" fill="white" stroke="#E5E7EB" stroke-width="4"/>
<path fill-rule="evenodd" clip-rule="evenodd" d="M206.049 126.629H251.284C255.328 126.629 257.071 121.35 253.761 119.008C253.715 118.975 253.668 118.941 253.621 118.909C248.909 115.644 242.724 115.941 242.724 115.941C242.724 115.941 241.842 98.2747 225.203 98.2747C210.16 98.2747 204.161 113.159 201.997 121.36C201.294 124.024 203.314 126.629 206.049 126.629Z" fill="white" stroke="#E5E7EB" stroke-width="4"/>
<path fill-rule="evenodd" clip-rule="evenodd" d="M138.434 124.259H168.807C171.523 124.259 172.692 120.691 170.47 119.11C170.439 119.087 170.408 119.064 170.376 119.042C167.212 116.836 163.06 117.036 163.06 117.036C163.06 117.036 162.467 105.1 151.295 105.1C141.195 105.1 137.167 115.158 135.714 120.698C135.243 122.498 136.598 124.259 138.434 124.259ZM102.929 86.5184H71.9109C69.1371 86.5184 67.9427 82.9517 70.2121 81.3696C70.2438 81.3468 70.2756 81.324 70.308 81.3026C73.5393 79.096 77.78 79.2968 77.78 79.2968C77.78 79.2968 78.3851 67.3598 89.795 67.3598C100.11 67.3598 104.224 77.4173 105.707 82.9586C106.189 84.7589 104.804 86.5184 102.929 86.5184ZM70.4149 136.438H101.433C104.206 136.438 105.401 132.729 103.132 131.083C103.1 131.06 103.068 131.037 103.035 131.014C99.8041 128.719 95.5641 128.928 95.5641 128.928C95.5641 128.928 94.9582 116.513 83.5491 116.513C73.2336 116.513 69.1198 126.973 67.6363 132.736C67.1547 134.608 68.5395 136.438 70.4149 136.438ZM210.012 76.6327H150.282C145.446 76.6327 143.36 70.4972 147.319 67.7752L147.487 67.6607C153.122 63.8657 160.518 64.2107 160.518 64.2107C160.518 64.2107 161.574 43.6804 181.473 43.6804C191.31 43.6804 199.261 60.1562 199.261 60.1562C199.261 60.1562 212.643 60.1562 214.858 70.5083C215.527 73.6443 213.283 76.6327 210.012 76.6327ZM394.918 129.694C403.236 129.694 399.344 116.453 388.807 119.616C388.223 101.231 358.374 87.7797 346.031 112.576C342.542 109.804 334.706 115.04 336.441 119.616C332.565 119.947 329.515 120.398 327.143 120.994C321.664 122.371 322.749 129.632 328.395 129.581L394.918 129.694ZM497.232 126.794H542.467C546.512 126.794 548.254 121.516 544.945 119.174C544.899 119.141 544.852 119.107 544.805 119.075C540.092 115.81 533.909 116.106 533.909 116.106C533.909 116.106 533.025 98.4402 516.387 98.4402C501.343 98.4402 495.345 113.325 493.181 121.526C492.478 124.19 494.498 126.794 497.232 126.794ZM365.449 75.2845H395.821C398.537 75.2845 399.706 71.7172 397.485 70.135L397.391 70.0681C394.226 67.8621 390.074 68.0622 390.074 68.0622C390.074 68.0622 389.481 56.1259 378.309 56.1259C368.209 56.1259 364.182 66.1834 362.729 71.7241C362.257 73.5243 363.613 75.2845 365.449 75.2845ZM446.355 105.171H415.337C412.564 105.171 411.369 101.605 413.638 100.022C413.67 99.9996 413.702 99.9768 413.734 99.9554C416.965 97.7488 421.206 97.9496 421.206 97.9496C421.206 97.9496 421.811 86.0126 433.221 86.0126C443.537 86.0126 447.65 96.07 449.134 101.611C449.615 103.412 448.231 105.171 446.355 105.171ZM273.915 63.6048H304.933C307.707 63.6048 308.901 59.8954 306.632 58.2504C306.6 58.2264 306.568 58.203 306.536 58.1801C303.304 55.8858 299.064 56.0942 299.064 56.0942C299.064 56.0942 298.459 43.6804 287.049 43.6804C276.734 43.6804 272.62 54.1401 271.137 59.9023C270.654 61.7743 272.04 63.6048 273.915 63.6048ZM513.411 71.4522H453.682C448.846 71.4522 446.76 65.3174 450.719 62.5954C450.774 62.5574 450.831 62.5181 450.886 62.4808C456.522 58.6858 463.918 59.0301 463.918 59.0301C463.918 59.0301 464.974 38.4999 484.872 38.4999C494.71 38.4999 502.661 54.9764 502.661 54.9764C502.661 54.9764 516.043 54.9764 518.258 65.3285C518.927 68.4645 516.683 71.4522 513.411 71.4522Z" fill="white" stroke="#E5E7EB" stroke-width="4"/>
<path d="M123.615 286.516L62.6635 381.025H187.856L126.905 286.516C126.644 286.113 126.079 285.755 125.259 285.755C124.439 285.755 123.874 286.113 123.614 286.516H123.615ZM414.228 269.941L340.988 381.025H492.652L419.412 269.941C418.962 269.259 418.036 268.735 416.82 268.735C415.605 268.735 414.678 269.259 414.228 269.941Z" fill="white" stroke="#E5E7EB" stroke-width="4"/>
<path d="M213.195 244.669L123.422 381.025H310.618L220.845 244.669C220.119 243.567 218.713 242.835 217.02 242.835C215.327 242.835 213.92 243.567 213.195 244.669ZM480.828 274.101L407.588 385.185H559.252L486.012 274.101C485.562 273.419 484.636 272.895 483.42 272.895C482.204 272.895 481.278 273.419 480.828 274.101Z" fill="white" stroke="#E5E7EB" stroke-width="4"/>
<path d="M217.02 364.076L236.299 376.523L255.334 364.076L236.299 316L217.02 364.076Z" fill="white" stroke="#E5E7EB" stroke-width="11"/>
<path d="M238.874 351.63V384.82M226.059 356.84L238.02 365.384" stroke="#E5E7EB" stroke-width="11"/>
<path d="M268.82 364.076L288.1 376.523L307.135 364.076L288.1 316L268.82 364.076Z" fill="white" stroke="#E5E7EB" stroke-width="11"/>
<path d="M290.674 351.63V384.82M277.859 356.84L289.82 365.384" stroke="#E5E7EB" stroke-width="11"/>
<path d="M320.62 359.179L344.451 374.564L367.98 359.179L344.451 299.753L320.62 359.179Z" fill="white" stroke="#E5E7EB" stroke-width="11"/>
<path d="M346.737 343.795V384.821M331.272 350.964L346.057 361.525" stroke="#E5E7EB" stroke-width="11"/>
<path d="M452.252 110.54C445.506 139.968 413.588 158.37 380.377 150.757C347.166 143.144 326.451 112.677 333.196 83.2492C339.941 53.8207 371.859 35.4198 405.07 43.0326C438.282 50.6454 458.997 81.1116 452.252 110.54Z" fill="white" stroke="#E5E7EB" stroke-width="4"/>
<path d="M527.781 183.24C526.047 190.802 520.4 197.508 510.801 203.012C501.198 208.521 487.977 212.612 471.925 214.994C439.846 219.755 397.273 217.573 351.885 207.168C306.496 196.764 267.222 180.184 240.421 161.926C227.009 152.791 216.89 143.35 210.644 134.208C204.402 125.072 202.239 116.575 203.973 109.014C205.706 101.453 211.354 94.7466 220.952 89.2418C230.555 83.7342 243.776 79.6425 259.828 77.2606C291.907 72.4996 334.48 74.6821 379.869 85.0859C425.258 95.4904 464.531 112.07 491.333 130.328C504.744 139.464 514.863 148.905 521.109 158.046C527.351 167.182 529.514 175.679 527.781 183.24Z" fill="white" stroke="#E5E7EB" stroke-width="4"/>
<path d="M282.091 111.818C294.562 112.559 304.927 108.857 305.242 103.549C305.557 98.2424 295.703 93.3401 283.231 92.5998C270.76 91.8595 260.395 95.5616 260.08 100.869C259.765 106.176 269.619 111.078 282.091 111.818Z" fill="#E5E7EB"/>
<path d="M344.136 119.406C356.462 121.448 367.158 118.852 368.027 113.607C368.895 108.362 359.608 102.455 347.283 100.413C334.958 98.3707 324.262 100.967 323.393 106.212C322.524 111.457 331.811 117.364 344.136 119.406Z" fill="#E5E7EB"/>
<path d="M406.9 138.063C418.453 142.818 429.459 142.688 431.482 137.771C433.506 132.855 425.781 125.015 414.228 120.259C402.676 115.504 391.67 115.635 389.646 120.551C387.622 125.467 395.347 133.307 406.9 138.063Z" fill="#E5E7EB"/>
<path d="M353.653 186.672C385.449 194.614 413.964 190.084 417.344 176.553C420.723 163.023 397.687 145.617 365.891 137.675C334.095 129.733 305.579 134.263 302.2 147.794C298.82 161.324 321.857 178.73 353.653 186.672Z" fill="#E5E7EB"/>
<path d="M470.066 169.949C480.526 176.781 491.362 178.711 494.27 174.26C497.177 169.809 491.054 160.662 480.594 153.83C470.134 146.999 459.298 145.069 456.391 149.52C453.484 153.971 459.607 163.118 470.066 169.949Z" fill="#E5E7EB"/>
<path d="M163.575 385.315L303.229 145.247C376.812 137.549 409.335 164.812 416.398 179.405L387.985 385.315H163.575Z" fill="#3B82F6"/>
<path d="M280.281 300.825H285.067V309.234H280.281V319.228H269.381V309.234H251.171L250.524 302.571L269.381 272.233V272.136H280.281V300.825ZM260.906 300.825H269.381V286.335L268.701 287.435L260.906 300.825ZM322.553 299.984C322.553 306.345 321.12 311.25 318.252 314.7C315.406 318.15 311.384 319.875 306.187 319.875C300.948 319.875 296.894 318.14 294.026 314.668C291.158 311.196 289.725 306.301 289.725 299.984V291.38C289.725 285.02 291.148 280.114 293.994 276.664C296.862 273.214 300.905 271.489 306.123 271.489C311.341 271.489 315.384 273.225 318.252 276.696C321.12 280.168 322.553 285.073 322.553 291.413V299.984ZM311.653 289.99C311.653 286.604 311.212 284.081 310.327 282.421C309.443 280.739 308.042 279.898 306.123 279.898C304.247 279.898 302.878 280.675 302.016 282.227C301.174 283.78 300.722 286.13 300.657 289.278V301.31C300.657 304.825 301.099 307.401 301.983 309.04C302.867 310.657 304.268 311.466 306.187 311.466C308.042 311.466 309.411 310.679 310.296 309.105C311.179 307.509 311.632 305.019 311.653 301.633V289.99ZM357 300.825H361.787V309.234H357V319.228H346.1V309.234H327.891L327.243 302.571L346.1 272.233V272.136H357V300.825ZM337.626 300.825H346.1V286.335L345.421 287.435L337.626 300.825Z" fill="white"/>
<path d="M97.4036 377.404V367.54" stroke="#22C55E" stroke-width="4"/>
<path d="M108.026 377.404V370.575" stroke="#22C55E" stroke-width="4"/>
<path d="M86.7797 377.404V370.575" stroke="#22C55E" stroke-width="4"/>
<path d="M149.203 377.404V367.54" stroke="#22C55E" stroke-width="4"/>
<path d="M159.827 377.404V370.575" stroke="#22C55E" stroke-width="4"/>
<path d="M138.58 377.404V370.575" stroke="#22C55E" stroke-width="4"/>
<path d="M463.703 381.774V371.91" stroke="#22C55E" stroke-width="4"/>
<path d="M474.326 381.774V374.945" stroke="#22C55E" stroke-width="4"/>
<path d="M453.5 381.945V374.945" stroke="#22C55E" stroke-width="4"/>
</g>
<defs>
<clipPath id="clip0_1384_34067">
<rect width="621" height="414" fill="white" transform="translate(0.5)"/>
</clipPath>
</defs>
</svg>
