<svg width="61" height="60" viewBox="0 0 61 60" fill="none" xmlns="http://www.w3.org/2000/svg">
<path fill-rule="evenodd" clip-rule="evenodd" d="M51.8806 8.78489C63.5969 20.501 63.5969 39.4965 51.8806 51.2128C40.1644 62.9291 21.1689 62.9291 9.45273 51.2128C-2.26354 39.4965 -2.26354 20.501 9.45273 8.78489C21.1658 -2.9283 40.1644 -2.9283 51.8806 8.78489Z" fill="white"/>
<path d="M21.8271 38.8384L21.8272 38.8385C26.7091 43.7205 34.6241 43.7206 39.5063 38.8384C44.3879 33.9568 44.3883 26.0429 39.5079 21.1609C39.5078 21.1608 39.5076 21.1606 39.5075 21.1605M21.8271 38.8384L39.5075 21.1605M21.8271 38.8384C16.945 33.9563 16.9451 26.0412 21.827 21.1593L21.8272 21.1592C26.7046 16.2817 34.6228 16.2788 39.5063 21.1593M21.8271 38.8384L39.5063 21.1593M39.5075 21.1605C39.5071 21.1601 39.5067 21.1597 39.5063 21.1593M39.5075 21.1605L39.5063 21.1593M9.4629 51.2026L9.45273 51.2128L9.4629 51.2026Z" stroke="#F3F4F6" stroke-width="35"/>
<path fill-rule="evenodd" clip-rule="evenodd" d="M18.0329 57.2175V41.4622C18.0329 39.9779 18.3802 38.5126 19.0528 37.1894L30.6649 14.2085L42.2769 37.1894C42.9486 38.5135 43.2981 39.9775 43.297 41.4622V57.2175" fill="white"/>
<path d="M18.0329 57.2175V41.4622C18.0329 39.9779 18.3802 38.5126 19.0528 37.1894L30.6649 14.2085L42.2769 37.1894C42.9486 38.5135 43.2981 39.9775 43.297 41.4622V57.2175" stroke="#E1E4E5" stroke-width="2"/>
<path fill-rule="evenodd" clip-rule="evenodd" d="M43.0542 39.3879L37.0634 43.8818L30.6653 39.0815L24.267 43.8818L18.2764 39.3879" fill="white"/>
<path d="M43.0542 39.3867L37.0634 43.8807L30.6653 39.0804L24.267 43.8807L18.2764 39.3867M34.9772 22.7012L30.5694 26.1153L26.442 22.9191M24.1623 43.5271V59.2318M37.1358 43.5271V59.2318" stroke="#E1E4E5" stroke-width="2"/>
<path d="M50.8842 26.3809C49.7377 26.3809 48.8083 27.3103 48.8083 28.4568C48.8083 29.6033 49.7377 30.5327 50.8842 30.5327C52.0307 30.5327 52.9601 29.6033 52.9601 28.4568C52.9601 27.3103 52.0307 26.3809 50.8842 26.3809Z" fill="#3B82F6"/>
<path d="M48.3919 12.9036C46.7613 12.9036 45.4394 14.2255 45.4394 15.8561C45.4394 17.4867 46.7613 18.8086 48.3919 18.8086C50.0225 18.8086 51.3444 17.4867 51.3444 15.8561C51.3444 14.2255 50.0225 12.9036 48.3919 12.9036Z" fill="#3B82F6"/>
<path d="M12.6106 23.0114C11.6668 23.0114 10.9017 23.7765 10.9017 24.7203C10.9017 25.6641 11.6668 26.4292 12.6106 26.4292C13.5544 26.4292 14.3195 25.6641 14.3195 24.7203C14.3195 23.7765 13.5544 23.0114 12.6106 23.0114Z" fill="#3B82F6"/>
<path d="M12.8489 45.4353C11.774 45.4353 10.9027 44.564 10.9027 43.4891C10.9027 42.4143 11.774 41.543 12.8489 41.543C13.9237 41.543 14.795 42.4143 14.795 43.4891C14.795 44.564 13.9237 45.4353 12.8489 45.4353Z" fill="#3B82F6"/>
<path d="M10.1257 13.876C9.62414 13.876 9.21752 13.4694 9.21752 12.9678C9.21752 12.4662 9.62414 12.0596 10.1257 12.0596C10.6273 12.0596 11.034 12.4662 11.034 12.9678C11.034 13.4694 10.6273 13.876 10.1257 13.876Z" fill="#3B82F6"/>
<path d="M48.223 49.0888C47.5141 49.0888 46.9394 48.5141 46.9394 47.8051C46.9394 47.0962 47.5141 46.5215 48.223 46.5215C48.932 46.5215 49.5067 47.0962 49.5067 47.8051C49.5067 48.5141 48.932 49.0888 48.223 49.0888Z" fill="#E1E4E5"/>
<path d="M38.2096 8.87572C37.4215 8.87572 36.7825 8.23678 36.7825 7.4486C36.7825 6.66043 37.4215 6.02148 38.2096 6.02148C38.9978 6.02148 39.6368 6.66043 39.6368 7.4486C39.6368 8.23678 38.9978 8.87572 38.2096 8.87572Z" fill="#E1E4E5"/>
<path d="M48.2512 37.1916C47.5269 37.1916 46.9397 36.7219 46.9397 36.1424C46.9397 35.563 47.5269 35.0933 48.2512 35.0933C48.9755 35.0933 49.5626 35.563 49.5626 36.1424C49.5626 36.7219 48.9755 37.1916 48.2512 37.1916Z" fill="#E1E4E5"/>
</svg>
