<svg width="492" height="216" viewBox="0 0 492 216" fill="none" xmlns="http://www.w3.org/2000/svg">
<circle cx="104" cy="96" r="90" fill="#F4F4F5"/>
<path d="M109.312 94.0524L104.975 93.1267L104.006 88.8345C103.964 88.6662 103.838 88.582 103.669 88.582C103.501 88.582 103.375 88.7082 103.332 88.8345L102.364 93.1687L98.0266 94.1787C97.8582 94.2207 97.7739 94.3469 97.7739 94.5153C97.7739 94.6836 97.9003 94.8098 98.0266 94.8519L102.364 95.7777L103.332 100.07C103.375 100.238 103.501 100.322 103.669 100.322C103.838 100.322 103.964 100.196 104.006 100.07L104.975 95.7356L109.312 94.7257C109.48 94.6836 109.565 94.5574 109.565 94.3891C109.565 94.2207 109.438 94.0945 109.312 94.0524Z" fill="#1E3A8A"/>
<path d="M373.762 71.3293L369.424 70.4035L368.456 66.1113C368.414 65.943 368.287 65.8589 368.119 65.8589C367.951 65.8589 367.824 65.9851 367.782 66.1113L366.814 70.4456L362.476 71.4555C362.308 71.4976 362.224 71.6238 362.224 71.7921C362.224 71.9604 362.35 72.0867 362.476 72.1288L366.814 73.0545L367.782 77.3467C367.824 77.515 367.951 77.5992 368.119 77.5992C368.287 77.5992 368.414 77.473 368.456 77.3467L369.424 73.0125L373.762 72.0025C373.93 71.9604 374.014 71.8342 374.014 71.6659C374.014 71.4976 373.888 71.3713 373.762 71.3293Z" fill="#1E3A8A"/>
<path d="M216.524 16.4569L213.703 15.8257L213.071 13.0063C213.029 12.9222 212.945 12.838 212.86 12.838C212.776 12.838 212.65 12.9222 212.65 13.0063L212.018 15.8257L209.197 16.499C209.113 16.5411 209.028 16.6252 209.028 16.7094C209.028 16.7936 209.113 16.9198 209.197 16.9198L212.018 17.551L212.65 20.3703C212.692 20.4545 212.776 20.5387 212.86 20.5387C212.945 20.5387 213.071 20.4545 213.071 20.3703L213.703 17.551L216.524 16.8777C216.608 16.8356 216.692 16.7514 216.692 16.6673C216.692 16.541 216.608 16.4569 216.524 16.4569Z" fill="#1E3A8A"/>
<path d="M400.122 101.459L397.3 100.827L396.669 98.008C396.626 97.9238 396.542 97.8397 396.458 97.8397C396.374 97.8397 396.247 97.9238 396.247 98.008L395.616 100.827L392.794 101.501C392.71 101.543 392.626 101.627 392.626 101.711C392.626 101.795 392.71 101.921 392.794 101.921L395.616 102.553L396.247 105.372C396.29 105.456 396.374 105.54 396.458 105.54C396.542 105.54 396.669 105.456 396.669 105.372L397.3 102.553L400.122 101.879C400.206 101.837 400.29 101.753 400.29 101.669C400.29 101.543 400.206 101.459 400.122 101.459Z" fill="#1E3A8A"/>
<path d="M182.667 38.5487C182.667 38.5487 178.287 26.5138 166.581 29.796C166.581 29.796 165.107 12.2907 146.115 11.1967C127.124 10.1026 121.271 25.0831 121.271 25.0831C121.271 25.0831 105.185 16.3304 94.2362 29.8381C94.2362 29.8381 81.8138 29.8381 79.2451 38.5908H182.667V38.5487Z" fill="white"/>
<path d="M184.436 39.811H77.561L78.0242 38.2119C80.5087 29.7118 90.9519 28.7019 93.6048 28.5756C103.29 17.1719 116.597 21.6745 120.639 23.3998C121.397 21.927 122.997 19.3601 125.692 16.7932C129.356 13.3427 135.925 9.34505 146.158 9.93417C162.707 10.902 166.707 23.8627 167.592 28.2811C179.256 26.0088 183.762 38.0436 183.804 38.1699L184.436 39.811ZM81.1403 37.2862H180.688C179.088 34.3406 174.877 28.786 166.96 31.0163L165.486 31.4371L165.36 29.9222C165.318 29.2489 163.718 13.4689 146.074 12.459C128.177 11.407 122.534 25.3776 122.492 25.5459L121.987 26.8924L120.723 26.2192C120.092 25.8825 105.438 18.1398 95.2892 30.6376L94.9102 31.1004H94.3207C94.1522 31.0583 84.3828 31.1425 81.1403 37.2862Z" fill="#1E3A8A"/>
<path d="M391.868 22.3479C391.868 22.3479 388.499 13.0903 379.53 15.6151C379.53 15.6151 378.393 2.14954 363.781 1.30794C349.169 0.466338 344.663 11.9542 344.663 11.9542C344.663 11.9542 332.325 5.22138 323.861 15.6151C323.861 15.6151 314.302 15.6151 312.365 22.3479H391.868Z" fill="white"/>
<path d="M393.678 23.6103H310.722L311.185 22.0113C313.122 15.4047 321.039 14.5211 323.313 14.3948C330.682 5.8105 340.704 8.92439 344.115 10.313C345.8 7.24119 351.4 -0.669858 363.865 0.0455016C376.455 0.760861 379.74 10.3972 380.54 14.1002C387.699 12.8799 391.826 18.5607 393.047 21.9271L393.678 23.6103ZM314.301 21.0855H389.804C388.457 18.8132 385.341 15.2785 379.824 16.8354L378.35 17.2562L378.224 15.7414C378.182 15.2364 376.961 3.36982 363.696 2.5703C350.179 1.77078 345.884 12.3329 345.842 12.417L345.336 13.7636L344.073 13.0903C343.61 12.8378 332.535 6.98871 324.871 16.4146L324.492 16.8775H323.902C323.818 16.8775 316.954 16.9196 314.301 21.0855Z" fill="#1E3A8A"/>
<path d="M85.8569 215.621H157.022C157.907 206.195 150.495 202.955 150.495 202.955C152.306 199.968 151.464 198.074 151.464 198.074C150.327 196.517 149.148 198.074 149.148 198.074C149.19 194.245 147.295 193.571 147.295 193.571C145.948 193.235 145.484 195.886 145.484 195.886C141.442 191.678 137.526 193.992 137.526 193.992C138.073 192.183 137.82 191.089 137.82 191.089C137.105 190.121 136.304 191.383 136.304 191.383C136.515 186.292 134.662 186.039 134.662 186.039C132.809 185.997 133.146 189.91 133.146 189.91C130.451 186.207 127.377 186.039 127.377 186.039C122.535 185.997 120.134 191.047 120.134 191.047C120.471 185.029 118.281 185.029 118.281 185.029C115.797 185.534 117.397 192.057 117.397 192.057C113.902 189.321 110.87 189.995 110.87 189.995C105.017 191.005 103.417 199.21 103.417 199.21C101.774 196.896 100.68 197.485 100.68 197.485C99.1215 198.326 99.8795 200.725 99.8795 200.725C94.7 202.03 98.7426 203.039 98.7426 203.039C97.7319 203.881 97.0582 205.396 97.0582 205.396C87.6677 205.185 85.8569 215.621 85.8569 215.621Z" fill="#3B82F6"/>
<path d="M123.208 214.654H12.4174C11.0278 199.968 22.5658 194.918 22.5658 194.918C19.7866 190.289 21.092 187.302 21.092 187.302C22.8606 184.861 24.6713 187.302 24.6713 187.302C24.5871 181.368 27.5348 180.316 27.5348 180.316C29.6403 179.811 30.3141 183.893 30.3141 183.893C36.5884 177.329 42.7365 180.906 42.7365 180.906C41.8522 178.128 42.3154 176.361 42.3154 176.361C43.4523 174.888 44.6735 176.782 44.6735 176.782C44.3366 168.829 47.2 168.492 47.2 168.492C50.0635 168.408 49.5582 174.509 49.5582 174.509C53.7692 168.744 58.5697 168.492 58.5697 168.492C66.0652 168.408 69.8551 176.277 69.8551 176.277C69.3498 166.935 72.7186 166.935 72.7186 166.935C76.5506 167.734 74.1082 177.834 74.1082 177.834C79.5404 173.541 84.2566 174.594 84.2566 174.594C93.3524 176.15 95.879 188.901 95.879 188.901C98.4056 185.324 100.174 186.208 100.174 186.208C102.617 187.512 101.395 191.257 101.395 191.257C109.438 193.277 103.164 194.834 103.164 194.834C104.722 196.139 105.775 198.495 105.775 198.495C120.429 198.411 123.208 214.654 123.208 214.654Z" fill="#3B82F6"/>
<path d="M124.724 215.916H11.2805L11.1541 214.78C9.97508 202.324 17.7654 196.307 20.8394 194.413C18.6076 189.911 19.8709 186.923 19.913 186.797L19.9551 186.67L20.0393 186.544C20.9657 185.24 22.0185 184.945 22.7343 184.945C22.987 184.945 23.2818 184.987 23.4923 185.029C24.124 180.232 26.9453 179.138 27.1137 179.096L27.2401 179.054C27.998 178.886 28.7139 179.012 29.3456 179.391C30.1035 179.895 30.6089 180.737 30.9457 181.537C34.862 178.339 38.6518 178.423 41.0099 178.928C40.7994 177.202 41.01 176.15 41.0521 176.024L41.1363 175.772L41.3047 175.561C42.0206 174.635 42.8207 174.467 43.326 174.509H43.3681C43.6208 167.987 46.4 167.271 47.0317 167.229H47.158C48.0423 167.187 48.8003 167.524 49.4319 168.155C50.1478 168.913 50.5268 170.091 50.7373 171.227C54.6114 167.482 58.3171 167.229 58.5277 167.187H58.5697C63.286 167.145 66.6127 169.796 68.634 172.153C68.8446 169.628 69.5182 167.819 70.571 166.682C71.5395 165.63 72.5502 165.588 72.7608 165.588H72.887L73.0134 165.63C73.9398 165.799 74.6977 166.346 75.2031 167.187C76.4242 169.123 76.2559 172.574 75.919 175.098C80.4248 172.616 84.0883 173.247 84.5094 173.331C91.8786 174.635 95.2474 182.294 96.5107 186.292C98.7846 184.23 100.511 184.945 100.764 185.071C102.911 186.207 103.164 188.564 102.911 190.373C105.017 191.005 106.785 191.846 106.785 193.361C106.785 194.287 106.154 194.918 105.354 195.381C105.901 196.096 106.28 196.77 106.575 197.274C121.482 197.653 124.472 214.233 124.514 214.401L124.724 215.916ZM13.5965 213.391H121.65C120.597 209.604 116.85 199.841 105.985 199.841C105.901 199.841 105.859 199.841 105.775 199.841H104.933L104.596 199.084C104.596 199.084 103.627 196.98 102.322 195.886L100.427 194.287L102.827 193.698C103.122 193.614 103.417 193.529 103.669 193.403C103.206 193.193 102.406 192.898 101.059 192.562L99.7531 192.225L100.174 190.92C100.174 190.878 100.974 188.269 99.6689 187.428C99.332 187.386 98.3214 187.764 96.9318 189.7L95.2474 192.099L94.6579 189.237C94.6158 189.111 92.1733 177.329 84.0461 175.898H84.0041C83.8356 175.856 79.7509 175.056 74.9083 178.886L72.0448 181.158L72.887 177.623C73.5187 175.056 74.1083 170.343 73.0555 168.66C72.9292 168.45 72.8028 168.366 72.7186 168.281C72.2554 168.534 70.7816 169.923 71.1184 176.235L71.4975 182.631L68.7182 176.866C68.6761 176.782 65.2231 169.754 58.654 169.796C58.3171 169.838 54.2745 170.259 50.611 175.309L47.9581 178.97L48.3371 174.467C48.4634 173.078 48.2949 170.68 47.6212 169.965C47.5369 169.88 47.4948 169.838 47.4106 169.838C47.0737 170.049 45.7262 171.353 45.9368 176.782L46.1473 181.495L43.6207 177.497C43.5786 177.455 43.5366 177.371 43.4945 177.329C43.4524 177.96 43.5365 179.096 43.9576 180.569L44.9262 183.683L42.1048 182.042C41.8943 181.915 36.7148 179.096 31.2405 184.777L29.514 186.586L29.0929 184.104C28.9244 183.262 28.4612 181.873 27.9559 181.537C27.9138 181.537 27.9138 181.495 27.8717 181.495C27.5348 181.663 25.8084 182.841 25.8926 187.26L25.9346 191.131L23.6186 188.017C23.4501 187.764 23.0291 187.428 22.7343 187.428C22.5659 187.428 22.3553 187.596 22.1447 187.849C21.9763 188.354 21.471 190.668 23.5765 194.203L24.3345 195.423L23.0291 196.012C22.608 196.265 12.9649 200.725 13.5965 213.391Z" fill="#1E3A8A"/>
<path d="M91.8368 206.616C88.4259 208.888 86.7837 212.465 86.11 214.653H61.6021C59.665 208.51 60.2966 205.227 60.2966 205.227C61.9389 208.089 63.7918 208.888 63.7918 208.888C65.8131 205.227 65.0129 195.339 65.0129 195.339C68.6765 198.747 69.2239 203.628 69.2239 203.628C71.2873 197.148 76.8879 194.245 76.9722 194.203C73.1402 200.472 72.9717 209.73 72.9717 209.73C77.688 202.24 86.6995 203.081 86.6995 203.081C80.1303 205.27 79.8777 211.918 79.8777 211.918C84.3413 206.953 91.8368 206.616 91.8368 206.616Z" fill="white"/>
<path d="M87.0356 215.916H60.6749L60.3801 215.032C58.3588 208.636 59.0326 205.101 59.0326 204.975L59.7064 201.693L61.3908 204.596C62.0224 205.69 62.6961 206.448 63.2014 206.911C64.1279 203.586 63.9173 197.737 63.7489 195.423L63.4963 192.183L65.8544 194.371C67.7072 196.096 68.8442 198.116 69.5179 199.841C72.255 195.128 76.4239 193.024 76.466 193.024L80.2139 191.299L78.0662 194.834C75.9607 198.284 75.0343 202.703 74.5711 205.859C79.7085 201.23 86.446 201.819 86.7829 201.861L92.7204 202.45L87.0778 204.344C84.5091 205.185 83.0352 206.827 82.2351 208.384C86.6146 205.648 91.5414 205.396 91.794 205.396L96.384 205.185L92.552 207.71C89.3938 209.814 87.9199 213.223 87.3304 215.074L87.0356 215.916ZM80.2559 213.391H85.1828C85.6881 212.044 86.5303 210.319 87.7936 208.636C85.5197 209.309 82.7826 210.53 80.7613 212.76L80.2559 213.391ZM72.1708 213.391H78.5295L78.5715 211.876C78.5715 211.666 78.7821 207.921 81.5192 204.891C78.9926 205.606 76.045 207.121 73.9816 210.403L72.1708 213.391ZM62.5277 213.391H71.6234L71.7077 209.73C71.7077 209.436 71.834 203.965 73.6868 198.495C72.4657 199.883 71.2024 201.693 70.4444 204.049L68.6337 209.73L67.9599 203.839C67.9599 203.797 67.6651 201.651 66.4018 199.294C66.4439 202.619 66.1913 207.121 64.8438 209.52L64.2963 210.53L63.2436 210.067C63.1173 210.025 62.4435 209.688 61.5592 208.888C61.7276 210.067 62.0224 211.582 62.5277 213.391Z" fill="#1E3A8A"/>
<path d="M410.479 215.621H481.645C482.529 206.195 475.118 202.955 475.118 202.955C476.929 199.968 476.086 198.074 476.086 198.074C474.949 196.517 473.77 198.074 473.77 198.074C473.813 194.245 471.918 193.571 471.918 193.571C470.57 193.235 470.107 195.886 470.107 195.886C466.064 191.678 462.148 193.992 462.148 193.992C462.696 192.183 462.443 191.089 462.443 191.089C461.727 190.121 460.927 191.383 460.927 191.383C461.137 186.292 459.285 186.039 459.285 186.039C457.432 185.997 457.769 189.91 457.769 189.91C455.074 186.207 452 186.039 452 186.039C447.157 185.997 444.757 191.047 444.757 191.047C445.094 185.029 442.904 185.029 442.904 185.029C440.42 185.534 442.02 192.057 442.02 192.057C438.525 189.321 435.493 189.995 435.493 189.995C429.639 191.005 428.039 199.21 428.039 199.21C426.397 196.896 425.302 197.485 425.302 197.485C423.744 198.326 424.502 200.725 424.502 200.725C419.322 202.03 423.365 203.039 423.365 203.039C422.354 203.881 421.681 205.396 421.681 205.396C412.29 205.185 410.479 215.621 410.479 215.621Z" fill="#3B82F6"/>
<path d="M447.832 214.654H337.041C335.652 199.968 347.19 194.918 347.19 194.918C344.411 190.289 345.716 187.302 345.716 187.302C347.485 184.861 349.295 187.302 349.295 187.302C349.211 181.368 352.159 180.316 352.159 180.316C354.264 179.811 354.938 183.893 354.938 183.893C361.212 177.329 367.36 180.906 367.36 180.906C366.476 178.128 366.939 176.361 366.939 176.361C368.076 174.888 369.298 176.782 369.298 176.782C368.961 168.829 371.824 168.492 371.824 168.492C374.688 168.408 374.182 174.509 374.182 174.509C378.393 168.744 383.194 168.492 383.194 168.492C390.689 168.408 394.479 176.277 394.479 176.277C393.974 166.935 397.343 166.935 397.343 166.935C401.175 167.734 398.732 177.834 398.732 177.834C404.164 173.541 408.881 174.594 408.881 174.594C417.976 176.15 420.503 188.901 420.503 188.901C423.03 185.324 424.798 186.208 424.798 186.208C427.241 187.512 426.019 191.257 426.019 191.257C434.062 193.277 427.788 194.834 427.788 194.834C429.346 196.139 430.399 198.495 430.399 198.495C445.053 198.411 447.832 214.654 447.832 214.654Z" fill="#3B82F6"/>
<path d="M449.348 215.916H335.905L335.778 214.78C334.599 202.324 342.389 196.307 345.463 194.413C343.232 189.911 344.495 186.923 344.537 186.797L344.579 186.67L344.663 186.544C345.59 185.24 346.642 184.945 347.358 184.945C347.653 184.945 347.906 184.987 348.116 185.029C348.748 180.232 351.569 179.138 351.738 179.096L351.864 179.054C352.622 178.886 353.338 179.012 353.97 179.391C354.728 179.895 355.233 180.737 355.57 181.537C359.486 178.339 363.276 178.423 365.634 178.928C365.424 177.202 365.634 176.15 365.676 176.024L365.76 175.772L365.929 175.561C366.645 174.635 367.445 174.467 367.95 174.509H367.992C368.245 167.987 371.024 167.271 371.656 167.229H371.782C372.666 167.187 373.424 167.524 374.056 168.155C374.814 168.913 375.151 170.091 375.361 171.227C379.235 167.482 382.941 167.229 383.152 167.187H383.194C387.91 167.145 391.237 169.796 393.258 172.153C393.469 169.628 394.142 167.819 395.195 166.682C396.164 165.63 397.174 165.588 397.385 165.588H397.511L397.638 165.63C398.564 165.799 399.322 166.346 399.827 167.187C401.048 169.123 400.88 172.574 400.543 175.098C405.049 172.616 408.712 173.247 409.133 173.331C416.503 174.635 419.871 182.294 421.135 186.292C423.409 184.23 425.135 184.945 425.388 185.071C427.535 186.207 427.788 188.564 427.535 190.373C429.641 191.005 431.41 191.846 431.41 193.361C431.41 194.287 430.778 194.918 429.978 195.381C430.525 196.096 430.904 196.77 431.199 197.274C446.106 197.653 449.096 214.233 449.138 214.401L449.348 215.916ZM338.221 213.391H446.274C445.222 209.604 441.474 199.841 430.609 199.841C430.525 199.841 430.483 199.841 430.399 199.841H429.557L429.22 199.084C429.22 199.084 428.251 196.98 426.946 195.886L425.051 194.287L427.451 193.698C427.746 193.614 428.041 193.529 428.293 193.403C427.83 193.193 427.03 192.898 425.683 192.562L424.377 192.225L424.798 190.92C424.798 190.878 425.598 188.269 424.293 187.428C423.956 187.386 422.945 187.764 421.556 189.7L419.871 192.099L419.282 189.237C419.24 189.111 416.797 177.329 408.67 175.898H408.628C408.46 175.856 404.375 175.056 399.532 178.886L396.669 181.158L397.511 177.623C398.143 175.056 398.732 170.343 397.68 168.66C397.553 168.45 397.427 168.366 397.343 168.281C396.879 168.534 395.406 169.923 395.743 176.235L396.122 182.631L393.342 176.866C393.3 176.782 389.847 169.796 383.32 169.796C383.278 169.796 383.278 169.796 383.236 169.796C382.899 169.838 378.857 170.259 375.193 175.309L372.54 178.97L372.919 174.467C373.045 173.078 372.877 170.68 372.203 169.965C372.119 169.88 372.077 169.838 371.993 169.838C371.656 170.049 370.308 171.353 370.519 176.782L370.729 181.495L368.203 177.497C368.161 177.455 368.118 177.371 368.076 177.329C368.034 177.96 368.119 179.096 368.54 180.569L369.508 183.683L366.687 182.042C366.476 181.915 361.297 179.096 355.822 184.777L354.096 186.586L353.675 184.104C353.506 183.262 353.043 181.873 352.538 181.537C352.496 181.537 352.496 181.495 352.454 181.495C352.117 181.663 350.39 182.841 350.475 187.26L350.517 191.131L348.201 188.017C348.032 187.764 347.611 187.428 347.316 187.428C347.148 187.428 346.937 187.596 346.727 187.849C346.558 188.354 346.053 190.668 348.159 194.203L348.916 195.423L347.611 196.012C347.274 196.265 337.589 200.725 338.221 213.391Z" fill="#1E3A8A"/>
<path d="M416.46 206.616C413.049 208.889 411.407 212.465 410.733 214.653H386.225C384.288 208.51 384.92 205.228 384.92 205.228C386.562 208.089 388.415 208.889 388.415 208.889C390.436 205.228 389.636 195.339 389.636 195.339C393.3 198.747 394.563 201.651 394.563 201.651C398.184 192.183 405.722 189.995 405.848 189.953C402.859 195.591 400.458 204.386 400.458 204.386C405.427 199.883 413.091 201.693 413.091 201.693C406.522 203.881 405.427 211.161 405.427 211.161C409.849 206.153 416.46 206.616 416.46 206.616Z" fill="white"/>
<path d="M411.66 215.916H385.299L385.004 215.032C382.983 208.636 383.657 205.101 383.657 204.975L384.33 201.693L386.015 204.596C386.646 205.69 387.32 206.448 387.826 206.911C388.752 203.586 388.541 197.737 388.373 195.423L388.12 192.183L390.478 194.371C392.289 196.054 393.552 197.653 394.395 198.831C398.1 191.51 404.038 189.153 405.343 188.69L408.67 187.175L406.943 190.457C405.175 193.782 403.617 198.284 402.648 201.314C407.575 199.042 413.049 200.262 413.344 200.346L417.681 201.356L413.47 202.745C410.817 203.629 409.175 205.48 408.165 207.247C412.249 204.975 416.376 205.228 416.587 205.27L420.292 205.522L417.176 207.584C414.018 209.688 412.544 213.097 411.954 214.948L411.66 215.916ZM405.048 213.391H409.849C410.396 211.96 411.323 210.025 412.797 208.257C410.775 208.72 408.333 209.772 406.354 211.96L405.048 213.391ZM387.152 213.391H403.743L404.122 210.95C404.164 210.698 404.964 205.817 408.796 202.619C406.438 202.703 403.49 203.292 401.259 205.354L398.016 208.299L399.195 204.091C399.279 203.797 400.88 197.948 403.153 192.73C400.795 194.245 397.679 197.106 395.742 202.156L394.647 205.059L393.426 202.198C393.426 202.198 392.752 200.725 391.068 198.705C391.11 202.072 390.942 206.953 389.552 209.52L389.005 210.53L387.952 210.067C387.826 210.025 387.152 209.688 386.267 208.889C386.352 210.067 386.646 211.582 387.152 213.391Z" fill="#1E3A8A"/>
<path d="M324.493 92.9159H300.701V214.485H324.493V92.9159Z" fill="#1E3A8A"/>
<path d="M190.204 92.9159H166.412V214.485H190.204V92.9159Z" fill="#1E3A8A"/>
<path d="M335.525 126.538H154.706V174.762H335.525V126.538Z" fill="white"/>
<path d="M336.746 176.024H153.4V125.275H336.746V176.024ZM155.969 173.499H334.261V127.8H155.969V173.499Z" fill="#1E3A8A"/>
<path d="M187.635 126.538L154.706 157.425V126.538H187.635Z" fill="#1E3A8A"/>
<path d="M153.442 160.328V125.275H190.836L153.442 160.328ZM155.969 127.8V154.479L184.435 127.8H155.969Z" fill="#1E3A8A"/>
<path d="M253.074 126.538L207.09 174.762H172.307L220.06 126.538H253.074Z" fill="#1E3A8A"/>
<path d="M207.637 176.024H169.275L219.512 125.275H256.022L207.637 176.024ZM175.339 173.499H206.543L250.126 127.8H220.607L175.339 173.499Z" fill="#1E3A8A"/>
<path d="M319.186 126.538L270.928 174.762H238.209L285.961 126.538H319.186Z" fill="#1E3A8A"/>
<path d="M271.434 176.024H235.177L285.414 125.275H322.218L271.434 176.024ZM241.241 173.499H270.381L316.112 127.8H286.467L241.241 173.499Z" fill="#1E3A8A"/>
<path d="M335.483 144.422V174.762H303.942L335.483 144.422Z" fill="#1E3A8A"/>
<path d="M336.746 176.024H300.785L336.746 141.476V176.024ZM307.059 173.499H334.22V147.41L307.059 173.499Z" fill="#1E3A8A"/>
<path d="M335.525 61.314H154.706V109.538H335.525V61.314Z" fill="white"/>
<path d="M336.746 110.8H153.4V60.0516H336.746V110.8ZM155.969 108.275H334.261V62.5764H155.969V108.275Z" fill="#1E3A8A"/>
<path d="M187.635 61.314L154.706 92.2007V61.314H187.635Z" fill="#1E3A8A"/>
<path d="M153.442 95.1042V60.0516H190.836L153.442 95.1042ZM155.969 62.5764V89.2551L184.435 62.5764H155.969Z" fill="#1E3A8A"/>
<path d="M253.074 61.314L207.09 109.538H172.307L220.06 61.314H253.074Z" fill="#1E3A8A"/>
<path d="M207.637 110.8H169.275L219.512 60.0515H256.022L207.637 110.8ZM175.339 108.275H206.543L250.126 62.5763H220.607L175.339 108.275Z" fill="#1E3A8A"/>
<path d="M319.186 61.314L270.928 109.538H238.209L285.961 61.314H319.186Z" fill="#1E3A8A"/>
<path d="M271.434 110.8H235.177L285.414 60.0516H322.218L271.434 110.8ZM241.241 108.275H270.381L316.112 62.5764H286.467L241.241 108.275Z" fill="#1E3A8A"/>
<path d="M335.483 79.24V109.538H303.942L335.483 79.24Z" fill="#1E3A8A"/>
<path d="M336.746 110.8H300.785L336.746 76.2523V110.8ZM307.059 108.275H334.22V82.1856L307.059 108.275Z" fill="#1E3A8A"/>
<path d="M199.763 117.912H291.268C295.689 117.912 298.426 113.114 296.195 109.327L250.421 31.8158C248.232 28.0707 242.799 28.0707 240.61 31.8158L194.836 109.327C192.605 113.114 195.342 117.912 199.763 117.912Z" fill="#DB2777"/>
<path d="M291.268 119.174H199.763C197.236 119.174 194.962 117.869 193.699 115.681C192.436 113.493 192.478 110.884 193.741 108.696L239.515 31.1847C240.778 29.0386 243.01 27.7762 245.494 27.7762C247.979 27.7762 250.21 29.0386 251.474 31.1847L297.247 108.696C298.552 110.884 298.553 113.493 297.289 115.681C296.068 117.869 293.794 119.174 291.268 119.174ZM245.494 30.301C243.894 30.301 242.462 31.1005 241.662 32.4892L195.889 110C195.089 111.389 195.047 113.072 195.847 114.461C196.647 115.85 198.079 116.691 199.679 116.691H291.183C292.783 116.691 294.215 115.85 295.015 114.461C295.815 113.072 295.815 111.389 294.973 110L249.2 32.4892C248.526 31.1005 247.094 30.301 245.494 30.301Z" fill="#1E3A8A"/>
<path d="M240.399 100.953C239.052 99.6909 238.378 98.134 238.378 96.2825C238.378 94.3889 239.052 92.874 240.399 91.6537C241.747 90.4333 243.431 89.8442 245.537 89.8442C247.642 89.8442 249.327 90.4333 250.632 91.6537C251.937 92.874 252.611 94.3889 252.611 96.2825C252.611 98.134 251.937 99.6488 250.59 100.953C249.242 102.216 247.558 102.847 245.537 102.847C243.431 102.847 241.747 102.216 240.399 100.953ZM245.537 58.5367C249.326 58.5367 252.316 61.7769 252.022 65.5641L250.253 86.3516H240.82L239.094 65.5641C238.715 61.7769 241.705 58.5367 245.537 58.5367Z" fill="white"/>
<path d="M245.537 104.109C243.136 104.109 241.115 103.352 239.515 101.837C237.915 100.322 237.115 98.4705 237.115 96.2824C237.115 94.0521 237.915 92.1585 239.515 90.7278C241.073 89.2971 243.094 88.5817 245.495 88.5817C247.895 88.5817 249.916 89.2971 251.432 90.7278C252.99 92.2006 253.79 94.0521 253.79 96.2824C253.79 98.4705 252.99 100.322 251.39 101.837C249.916 103.352 247.895 104.109 245.537 104.109ZM245.537 91.1065C243.768 91.1065 242.378 91.6115 241.242 92.5793C240.189 93.5471 239.641 94.7675 239.641 96.2824C239.641 97.7552 240.189 98.9755 241.242 100.027C242.336 101.079 243.726 101.584 245.495 101.584C247.221 101.584 248.611 101.079 249.706 100.027C250.8 98.9755 251.306 97.7552 251.306 96.2824C251.306 94.7675 250.8 93.5471 249.748 92.5793C248.695 91.5694 247.305 91.1065 245.537 91.1065ZM251.39 87.6139H239.599L237.789 65.6481C237.62 63.502 238.336 61.356 239.81 59.7569C241.284 58.1579 243.347 57.2321 245.537 57.2321C247.684 57.2321 249.79 58.1579 251.264 59.7569C252.738 61.356 253.453 63.502 253.285 65.6481L251.39 87.6139ZM241.957 85.0891H249.074L250.758 65.4798C250.885 64.007 250.422 62.5763 249.411 61.4822C248.4 60.3881 247.053 59.799 245.537 59.799C244.063 59.799 242.673 60.3881 241.705 61.4822C240.694 62.5763 240.231 63.9649 240.357 65.4798L241.957 85.0891Z" fill="#1E3A8A"/>
<path d="M491.5 213.475H0.5V216H491.5V213.475Z" fill="#1E3A8A"/>
</svg>
