<svg width="60" height="60" viewBox="0 0 60 60" fill="none" xmlns="http://www.w3.org/2000/svg">
<path d="M19.3937 40.6065L19.3937 40.6064C13.5354 34.7479 13.5355 25.2496 19.3936 19.3914L19.3937 19.3912C25.2472 13.5375 34.7472 13.535 40.6064 19.3914C40.6067 19.3917 40.607 19.392 40.6073 19.3923C40.6075 19.3924 40.6076 19.3926 40.6077 19.3927C46.4645 25.2511 46.4642 34.7483 40.6063 40.6064C34.7484 46.4646 25.2515 46.4645 19.3937 40.6065ZM8.79197 51.2077L8.78688 51.2128L8.79197 51.2077Z" stroke="#F3F4F6" stroke-width="30"/>
<path d="M23.3992 15.6958H40.5881C41.7722 15.6958 42.8226 15.7404 43.7585 15.8968C48.7814 16.5444 50.1375 19.3133 50.1375 26.8612V40.2598C50.1375 47.8076 48.7814 50.5767 43.7585 51.2243C42.8226 51.3806 41.7722 51.4253 40.5881 51.4253H23.3992C22.215 51.4253 21.1646 51.3806 20.2287 51.2243C15.2058 50.5767 13.8497 47.8076 13.8497 40.2598V26.8612C13.8497 19.3133 15.2058 16.5444 20.2287 15.8968C21.1646 15.7404 22.215 15.6958 23.3992 15.6958Z" fill="#3B82F6" stroke="#3B82F6" stroke-width="6" stroke-linecap="round" stroke-linejoin="round"/>
<path d="M34.6253 28.0981H40.7427M23.2644 35.0894H40.7427M23.2644 41.7425H40.7427M28.6725 28.0981H28.6881M23.4289 28.0981H23.4446" stroke="white" stroke-width="2" stroke-linecap="round" stroke-linejoin="round"/>
<path d="M22.8382 13.2394V13.2395V21.1056C22.8382 22.9079 21.5618 24.5567 19.8254 25.9489C18.109 27.3249 16.0587 28.3568 14.7545 28.9389L14.7532 28.9395C14.4123 29.0928 14.0428 29.172 13.6691 29.172C13.2953 29.172 12.9258 29.0928 12.5849 28.9395L12.5837 28.9389C11.2792 28.3566 9.22898 27.3264 7.51273 25.9512C5.77655 24.56 4.50001 22.9112 4.50001 21.1056V13.2397C4.50095 12.099 5.2195 11.0797 6.29929 10.692C6.29932 10.692 6.29935 10.692 6.29939 10.692L11.2208 8.92624C12.8057 8.35792 14.5389 8.35792 16.1239 8.92623C16.1239 8.92624 16.1239 8.92624 16.1239 8.92624L21.0388 10.6888C21.0389 10.6888 21.039 10.6889 21.039 10.6889C22.1197 11.0769 22.8385 12.0977 22.8382 13.2394Z" fill="#3B82F6" stroke="white"/>
<path d="M10.7805 20.2392C11.76 21.2148 13.233 21.5067 14.5126 20.9786C15.7922 20.4507 16.6265 19.2068 16.6265 17.827C16.6265 16.4472 15.7922 15.2033 14.5126 14.6753C13.233 14.1473 11.76 14.4392 10.7805 15.4148C9.4433 16.747 9.4433 18.9069 10.7805 20.2392" stroke="white" stroke-width="2" stroke-linecap="round" stroke-linejoin="round"/>
<path d="M17.5513 22.157L15.6242 20.2373L17.5513 22.157Z" stroke="white" stroke-width="2" stroke-linecap="round" stroke-linejoin="round"/>
<path d="M54.1356 34.1386L54.1356 34.1386C54.5505 34.3772 54.8951 34.7209 55.1347 35.1351L55.5675 34.8848L55.1347 35.1351C55.3743 35.5494 55.5005 36.0194 55.5005 36.498V39.5123C55.5005 39.9909 55.3743 40.461 55.1347 40.8752C54.895 41.2895 54.5504 41.6332 54.1356 41.8718C54.1356 41.8718 54.1356 41.8718 54.1356 41.8718L51.4965 43.3896L51.4965 43.3897C51.0836 43.6271 50.6157 43.7521 50.1395 43.7521C49.6633 43.7521 49.1954 43.6271 48.7825 43.3897L48.7825 43.3896L46.1433 41.8718C46.1433 41.8718 46.1433 41.8718 46.1433 41.8718C45.7285 41.6332 45.3839 41.2895 45.1442 40.8752C44.9046 40.461 44.7784 39.9909 44.7784 39.5123C44.7784 39.5123 44.7784 39.5123 44.7784 39.5123V36.498C44.7784 36.0194 44.9046 35.5494 45.1442 35.1351C45.3838 34.7209 45.7284 34.3772 46.1433 34.1386L46.1433 34.1386L48.7825 32.6207C48.7825 32.6207 48.7825 32.6207 48.7825 32.6207C49.1954 32.3832 49.6633 32.2583 50.1395 32.2583C50.6157 32.2583 51.0836 32.3832 51.4965 32.6207C51.4965 32.6207 51.4965 32.6207 51.4965 32.6207L54.1356 34.1386Z" fill="#3B82F6" stroke="white"/>
<path d="M52.2322 36.7441L49.7619 39.1853L48.2796 37.7206" stroke="white" stroke-width="2" stroke-linecap="round" stroke-linejoin="round"/>
</svg>
