<svg width="61" height="60" viewBox="0 0 61 60" fill="none" xmlns="http://www.w3.org/2000/svg">
<path d="M19.7271 40.6065L19.727 40.6064C13.8687 34.7479 13.8688 25.2496 19.727 19.3914L19.7271 19.3912C25.5805 13.5375 35.0806 13.535 40.9397 19.3914C40.94 19.3917 40.9404 19.392 40.9407 19.3923C40.9408 19.3924 40.9409 19.3926 40.9411 19.3927C46.7978 25.2511 46.7975 34.7483 40.9397 40.6064C35.0817 46.4646 25.5848 46.4645 19.7271 40.6065ZM9.12531 51.2077L9.12021 51.2128L9.12531 51.2077Z" stroke="#F3F4F6" stroke-width="30"/>
<path d="M15.7131 42.649C15.2169 42.649 14.8146 42.2468 14.8146 41.7505C14.8146 41.2543 15.2169 40.8521 15.7131 40.8521C16.2094 40.8521 16.6116 41.2543 16.6116 41.7505C16.6116 42.2468 16.2094 42.649 15.7131 42.649Z" fill="#F3F4F6"/>
<path d="M28.6011 48.2429C28.0438 48.2429 27.592 47.8815 27.592 47.4357C27.592 46.9898 28.0438 46.6284 28.6011 46.6284C29.1584 46.6284 29.6102 46.9898 29.6102 47.4357C29.6102 47.8815 29.1584 48.2429 28.6011 48.2429Z" fill="#F3F4F6"/>
<path fill-rule="evenodd" clip-rule="evenodd" d="M46.6932 15.3002L39.2755 7.85804C38.7892 7.36964 38.2112 6.98202 37.5748 6.71739C36.9384 6.45277 36.256 6.31634 35.5667 6.31592H16.7552C13.8569 6.31592 11.5093 8.67119 11.5093 11.5791V48.4213C11.5093 51.3291 13.8569 53.6843 16.7552 53.6843H42.9844C45.8827 53.6843 48.2302 51.3291 48.2302 48.4213V19.0212C48.2301 17.6264 47.6774 16.2885 46.6932 15.3002Z" fill="white" stroke="#F3F4F6"/>
<path d="M22.3116 20.1784C22.3116 18.4017 20.8713 16.9614 19.0946 16.9614C17.3179 16.9614 15.8777 18.4017 15.8777 20.1784C15.8777 21.9551 17.3179 23.3954 19.0946 23.3954C20.8713 23.3954 22.3116 21.9551 22.3116 20.1784Z" fill="#3B82F6"/>
<path d="M19.0941 18.7285H19.0939C18.2927 18.7285 17.6432 19.378 17.6432 20.1793V20.1794C17.6432 20.9806 18.2927 21.6302 19.0939 21.6302H19.0941C19.8953 21.6302 20.5448 20.9806 20.5448 20.1794V20.1793C20.5448 19.378 19.8953 18.7285 19.0941 18.7285Z" fill="white"/>
<path d="M43.1377 17.4702H24.4568C24.2074 17.4702 24.0052 17.6724 24.0052 17.9217C24.0052 18.1711 24.2074 18.3732 24.4568 18.3732H43.1377C43.3871 18.3732 43.5893 18.1711 43.5893 17.9217C43.5893 17.6724 43.3871 17.4702 43.1377 17.4702Z" fill="#F3F4F6"/>
<path d="M43.1377 19.6719H24.4568C24.2074 19.6719 24.0052 19.874 24.0052 20.1234C24.0052 20.3727 24.2074 20.5748 24.4568 20.5748H43.1377C43.3871 20.5748 43.5893 20.3727 43.5893 20.1234C43.5893 19.874 43.3871 19.6719 43.1377 19.6719Z" fill="#F3F4F6"/>
<path d="M43.1377 21.8711H24.4568C24.2074 21.8711 24.0052 22.0732 24.0052 22.3226C24.0052 22.5719 24.2074 22.7741 24.4568 22.7741H43.1377C43.3871 22.7741 43.5893 22.5719 43.5893 22.3226C43.5893 22.0732 43.3871 21.8711 43.1377 21.8711Z" fill="#F3F4F6"/>
<path d="M22.3116 28.2521C22.3116 26.4755 20.8713 25.0352 19.0946 25.0352C17.3179 25.0352 15.8777 26.4755 15.8777 28.2521C15.8777 30.0288 17.3179 31.4691 19.0946 31.4691C20.8713 31.4691 22.3116 30.0288 22.3116 28.2521Z" fill="#3B82F6"/>
<path d="M19.0941 26.8022H19.0939C18.2927 26.8022 17.6432 27.4518 17.6432 28.253V28.2531C17.6432 29.0544 18.2927 29.7039 19.0939 29.7039H19.0941C19.8953 29.7039 20.5448 29.0544 20.5448 28.2531V28.253C20.5448 27.4518 19.8953 26.8022 19.0941 26.8022Z" fill="white"/>
<path d="M43.1377 25.5405H24.4568C24.2074 25.5405 24.0052 25.7427 24.0052 25.992C24.0052 26.2414 24.2074 26.4435 24.4568 26.4435H43.1377C43.3871 26.4435 43.5893 26.2414 43.5893 25.992C43.5893 25.7427 43.3871 25.5405 43.1377 25.5405Z" fill="#F3F4F6"/>
<path d="M43.1377 27.7427H24.4568C24.2074 27.7427 24.0052 27.9448 24.0052 28.1942C24.0052 28.4435 24.2074 28.6456 24.4568 28.6456H43.1377C43.3871 28.6456 43.5893 28.4435 43.5893 28.1942C43.5893 27.9448 43.3871 27.7427 43.1377 27.7427Z" fill="#F3F4F6"/>
<path d="M43.1377 29.9443H24.4568C24.2074 29.9443 24.0052 30.1465 24.0052 30.3958C24.0052 30.6452 24.2074 30.8473 24.4568 30.8473H43.1377C43.3871 30.8473 43.5893 30.6452 43.5893 30.3958C43.5893 30.1465 43.3871 29.9443 43.1377 29.9443Z" fill="#F3F4F6"/>
<path d="M22.3116 36.3254C22.3116 34.5487 20.8713 33.1084 19.0946 33.1084C17.3179 33.1084 15.8777 34.5487 15.8777 36.3254C15.8777 38.1021 17.3179 39.5424 19.0946 39.5424C20.8713 39.5424 22.3116 38.1021 22.3116 36.3254Z" fill="#3B82F6"/>
<path d="M19.0941 34.8726H19.0939C18.2927 34.8726 17.6432 35.5221 17.6432 36.3233V36.3234C17.6432 37.1247 18.2927 37.7742 19.0939 37.7742H19.0941C19.8953 37.7742 20.5448 37.1247 20.5448 36.3234V36.3233C20.5448 35.5221 19.8953 34.8726 19.0941 34.8726Z" fill="white"/>
<path d="M43.1377 33.6143H24.4568C24.2074 33.6143 24.0052 33.8164 24.0052 34.0657C24.0052 34.3151 24.2074 34.5172 24.4568 34.5172H43.1377C43.3871 34.5172 43.5893 34.3151 43.5893 34.0657C43.5893 33.8164 43.3871 33.6143 43.1377 33.6143Z" fill="#F3F4F6"/>
<path d="M43.1377 35.8164H24.4568C24.2074 35.8164 24.0052 36.0185 24.0052 36.2679C24.0052 36.5172 24.2074 36.7194 24.4568 36.7194H43.1377C43.3871 36.7194 43.5893 36.5172 43.5893 36.2679C43.5893 36.0185 43.3871 35.8164 43.1377 35.8164Z" fill="#F3F4F6"/>
<path d="M43.1377 38.0181H24.4568C24.2074 38.0181 24.0052 38.2202 24.0052 38.4696C24.0052 38.7189 24.2074 38.921 24.4568 38.921H43.1377C43.3871 38.921 43.5893 38.7189 43.5893 38.4696C43.5893 38.2202 43.3871 38.0181 43.1377 38.0181Z" fill="#F3F4F6"/>
<path d="M22.3116 44.3962C22.3116 42.6195 20.8713 41.1792 19.0946 41.1792C17.3179 41.1792 15.8777 42.6195 15.8777 44.3962C15.8777 46.1729 17.3179 47.6132 19.0946 47.6132C20.8713 47.6132 22.3116 46.1729 22.3116 44.3962Z" fill="#3B82F6"/>
<path d="M19.0941 42.9463H19.0939C18.2927 42.9463 17.6432 43.5958 17.6432 44.397V44.3972C17.6432 45.1984 18.2927 45.8479 19.0939 45.8479H19.0941C19.8953 45.8479 20.5448 45.1984 20.5448 44.3972V44.397C20.5448 43.5958 19.8953 42.9463 19.0941 42.9463Z" fill="white"/>
<path d="M43.1377 41.688H24.4568C24.2074 41.688 24.0052 41.8901 24.0052 42.1395C24.0052 42.3888 24.2074 42.591 24.4568 42.591H43.1377C43.3871 42.591 43.5893 42.3888 43.5893 42.1395C43.5893 41.8901 43.3871 41.688 43.1377 41.688Z" fill="#F3F4F6"/>
<path d="M43.1377 43.8896H24.4568C24.2074 43.8896 24.0052 44.0918 24.0052 44.3411C24.0052 44.5905 24.2074 44.7926 24.4568 44.7926H43.1377C43.3871 44.7926 43.5893 44.5905 43.5893 44.3411C43.5893 44.0918 43.3871 43.8896 43.1377 43.8896Z" fill="#F3F4F6"/>
<path d="M43.1377 46.0884H24.4568C24.2074 46.0884 24.0052 46.2905 24.0052 46.5399C24.0052 46.7892 24.2074 46.9914 24.4568 46.9914H43.1377C43.3871 46.9914 43.5893 46.7892 43.5893 46.5399C43.5893 46.2905 43.3871 46.0884 43.1377 46.0884Z" fill="#F3F4F6"/>
<path d="M45.2282 53.6805C51.0333 53.6805 55.7393 48.9745 55.7393 43.1693C55.7393 37.3642 51.0333 32.6582 45.2282 32.6582C39.4231 32.6582 34.7171 37.3642 34.7171 43.1693C34.7171 48.9745 39.4231 53.6805 45.2282 53.6805Z" fill="#3B82F6"/>
<path d="M42.7245 46.6187H41.7899C41.6513 46.6187 41.5184 46.5636 41.4204 46.4656C41.3224 46.3676 41.2673 46.2347 41.2672 46.0961V42.4387C41.2673 42.3001 41.3224 42.1672 41.4204 42.0691C41.5184 41.9711 41.6513 41.916 41.7899 41.916H42.7245C42.8632 41.916 42.9961 41.9711 43.0942 42.0691C43.1922 42.1671 43.2473 42.3001 43.2473 42.4387V46.0961C43.2473 46.2347 43.1922 46.3676 43.0942 46.4657C42.9961 46.5637 42.8632 46.6187 42.7245 46.6187V46.6187Z" stroke="white" stroke-linecap="round" stroke-linejoin="round"/>
<path d="M43.2486 42.4478L45.055 40.0959C45.3911 39.6578 46.0475 39.6469 46.3985 40.0731C46.5295 40.2321 46.6011 40.4318 46.6009 40.6379V42.2572H48.1336C48.28 42.2572 48.4242 42.2933 48.5533 42.3622C48.6825 42.4312 48.7926 42.531 48.8741 42.6527L49.0369 42.8958C49.1091 43.0036 49.1569 43.1258 49.1769 43.254C49.1969 43.3822 49.1887 43.5132 49.1528 43.6378L48.48 45.9754C48.4266 46.1611 48.3142 46.3245 48.1598 46.4407C48.0054 46.557 47.8174 46.6199 47.6241 46.6199H44.5109C44.3885 46.6199 44.2673 46.5947 44.1551 46.5458C44.0428 46.4969 43.9418 46.4254 43.8584 46.3357L43.2486 45.6793" stroke="white" stroke-linecap="round" stroke-linejoin="round"/>
</svg>
