<svg width="300" height="200" viewBox="0 0 300 200" fill="none" xmlns="http://www.w3.org/2000/svg">
<g clip-path="url(#clip0_2657_44138)">
<path d="M152.183 192.669C203.408 192.669 244.934 151.143 244.934 99.918C244.934 48.6929 203.408 7.16669 152.183 7.16669C100.958 7.16669 59.4317 48.6929 59.4317 99.918C59.4317 151.143 100.958 192.669 152.183 192.669Z" stroke="url(#paint0_linear_2657_44138)" stroke-width="3"/>
<path d="M148.191 125.229C142.206 123.919 139.596 117.858 137.51 107.51C135.943 99.7273 134.413 92.6607 136.236 83.8463C137.51 77.6773 140.137 72.302 142.996 68.0923C146.092 63.531 149.37 57.482 154.713 58.3337C162.054 59.505 172.917 75.884 169.433 96.0563C165.602 118.216 154.041 126.512 148.191 125.229Z" fill="url(#paint1_linear_2657_44138)"/>
<path d="M190.791 162.952C173.033 171.761 149.463 160.435 149.463 160.435C149.463 160.435 154.702 134.831 172.469 126.034C190.227 117.225 213.787 128.539 213.787 128.539C213.787 128.539 208.549 154.143 190.791 162.952Z" fill="url(#paint2_linear_2657_44138)"/>
<path d="M232.49 48.108C229.938 48.108 227.869 50.1767 227.869 52.7286C227.869 55.2806 229.938 57.3493 232.49 57.3493C235.042 57.3493 237.11 55.2806 237.11 52.7286C237.11 50.1767 235.042 48.108 232.49 48.108Z" fill="#94D89C"/>
<path d="M76.724 94.0613C74.3446 94.0613 72.4157 95.9902 72.4157 98.3696C72.4157 100.749 74.3446 102.678 76.724 102.678C79.1034 102.678 81.0323 100.749 81.0323 98.3696C81.0323 95.9902 79.1034 94.0613 76.724 94.0613Z" fill="#94D89C"/>
<path d="M48.483 67.2274C46.0905 67.2274 44.151 65.2879 44.151 62.8954C44.151 60.5029 46.0905 58.5634 48.483 58.5634C50.8755 58.5634 52.815 60.5029 52.815 62.8954C52.815 65.2879 50.8755 67.2274 48.483 67.2274Z" fill="#94D89C"/>
<path d="M135.689 174.653C134.253 174.653 133.089 173.489 133.089 172.054C133.089 170.618 134.253 169.454 135.689 169.454C137.124 169.454 138.288 170.618 138.288 172.054C138.288 173.489 137.124 174.653 135.689 174.653Z" fill="#D1D5DB"/>
<path d="M56.4247 148.242C54.3512 148.242 52.6703 146.561 52.6703 144.488C52.6703 142.414 54.3512 140.733 56.4247 140.733C58.4981 140.733 60.179 142.414 60.179 144.488C60.179 146.561 58.4981 148.242 56.4247 148.242Z" fill="#D1D5DB"/>
<path d="M91.126 55.568C89.5479 55.568 88.2687 54.2887 88.2687 52.7107C88.2687 51.1326 89.5479 49.8533 91.126 49.8533C92.7041 49.8533 93.9833 51.1326 93.9833 52.7107C93.9833 54.2887 92.7041 55.568 91.126 55.568Z" fill="#D1D5DB"/>
<path d="M120.52 127.975C118.766 127.975 117.344 126.553 117.344 124.798C117.344 123.044 118.766 121.622 120.52 121.622C122.275 121.622 123.697 123.044 123.697 124.798C123.697 126.553 122.275 127.975 120.52 127.975Z" fill="#D1D5DB"/>
<path d="M102.36 157.131C102.768 158.653 101.865 160.217 100.343 160.625C98.8209 161.033 97.2567 160.13 96.849 158.608C96.4412 157.086 97.3443 155.522 98.8661 155.114C100.388 154.706 101.952 155.61 102.36 157.131Z" fill="#94D89C"/>
<path d="M128.751 32.534C126.655 32.534 124.956 30.8349 124.956 28.739C124.956 26.643 126.655 24.944 128.751 24.944C130.847 24.944 132.546 26.643 132.546 28.739C132.546 30.8349 130.847 32.534 128.751 32.534Z" fill="#D1D5DB"/>
<path d="M199.011 16.0762C199.86 19.2434 197.981 22.4989 194.813 23.3475C191.646 24.1962 188.391 22.3166 187.542 19.1494C186.693 15.9822 188.573 12.7268 191.74 11.8781C194.907 11.0295 198.163 12.909 199.011 16.0762Z" fill="#D1D5DB"/>
<path d="M224.109 137.143H224.186C224.638 143.551 229.403 143.649 229.403 143.649C229.403 143.649 224.148 143.752 224.148 151.156C224.148 143.752 218.894 143.649 218.894 143.649C218.894 143.649 223.657 143.551 224.109 137.143ZM193.364 175.558H193.432C193.833 181.357 198.062 181.446 198.062 181.446C198.062 181.446 193.399 181.539 193.399 188.24C193.399 181.539 188.737 181.446 188.737 181.446C188.737 181.446 192.963 181.357 193.364 175.558Z" fill="#D1D5DB"/>
<path d="M150 163.333C184.978 163.333 213.333 134.903 213.333 99.8333C213.333 64.7632 184.978 36.3333 150 36.3333C115.022 36.3333 86.6667 64.7632 86.6667 99.8333C86.6667 134.903 115.022 163.333 150 163.333Z" fill="#3B82F6"/>
<path d="M188.485 116.951H179.967L174.286 125.469L166.718 108.433L161.037 116.951H113.207" stroke="white" stroke-width="6" stroke-linecap="round" stroke-linejoin="round"/>
<path fill-rule="evenodd" clip-rule="evenodd" d="M129.518 77.762L130.703 78.9657L131.887 77.762C132.953 76.6713 134.227 75.8046 135.633 75.2129C137.038 74.6211 138.548 74.3163 140.074 74.3163C141.599 74.3163 143.109 74.6211 144.515 75.2129C145.921 75.8046 147.194 76.6713 148.26 77.762C152.782 82.3857 152.782 89.778 148.26 94.4017L137.183 105.659C136.339 106.522 135.331 107.208 134.218 107.677C133.105 108.145 131.91 108.387 130.703 108.387C129.495 108.387 128.3 108.145 127.187 107.677C126.074 107.208 125.066 106.522 124.222 105.659L113.145 94.402C108.623 89.7783 108.623 82.3857 113.145 77.7623C114.211 76.6716 115.484 75.8048 116.89 75.2131C118.296 74.6214 119.806 74.3165 121.331 74.3165C122.857 74.3165 124.367 74.6212 125.773 75.2129C127.179 75.8046 128.452 76.6713 129.518 77.762Z" fill="white"/>
<path d="M229.181 76.2504C229.181 102.518 260.702 102.518 260.702 128.785" stroke="#D1D5DB" stroke-width="4" stroke-linecap="round" stroke-linejoin="round"/>
<path d="M260.702 76.2504C260.702 102.518 229.181 102.518 229.181 128.785M229.297 78.877H260.585M232.508 89.384H257.374M260.585 126.158H229.297M257.199 115.651H232.508M39.263 76.2504C39.263 102.518 70.7837 102.518 70.7837 128.785" stroke="#D1D5DB" stroke-width="4" stroke-linecap="round" stroke-linejoin="round"/>
<path d="M70.7837 76.2504C70.7837 102.518 39.263 102.518 39.263 128.785M39.379 78.8767H70.6663M42.5897 89.384H67.456M70.6663 126.158H39.379M67.281 115.651H42.5897" stroke="#D1D5DB" stroke-width="4" stroke-linecap="round" stroke-linejoin="round"/>
<path d="M188.25 96.5C187.007 96.5 186 95.4926 186 94.25C186 93.0074 187.007 92 188.25 92C189.493 92 190.5 93.0074 190.5 94.25C190.5 95.4926 189.493 96.5 188.25 96.5Z" fill="white"/>
<path d="M175.25 96.5C174.007 96.5 173 95.4926 173 94.25C173 93.0074 174.007 92 175.25 92C176.493 92 177.5 93.0074 177.5 94.25C177.5 95.4926 176.493 96.5 175.25 96.5Z" fill="white"/>
<path d="M162.25 96.5C161.007 96.5 160 95.4926 160 94.25C160 93.0074 161.007 92 162.25 92C163.493 92 164.5 93.0074 164.5 94.25C164.5 95.4926 163.493 96.5 162.25 96.5Z" fill="white"/>
</g>
<defs>
<linearGradient id="paint0_linear_2657_44138" x1="156.16" y1="297.734" x2="150.409" y2="-196.217" gradientUnits="userSpaceOnUse">
<stop stop-color="white"/>
<stop offset="1" stop-color="#EEEEEE"/>
</linearGradient>
<linearGradient id="paint1_linear_2657_44138" x1="109.183" y1="116.006" x2="216.167" y2="55.572" gradientUnits="userSpaceOnUse">
<stop stop-color="white"/>
<stop offset="1" stop-color="#EEEEEE"/>
</linearGradient>
<linearGradient id="paint2_linear_2657_44138" x1="122.598" y1="190.43" x2="269.067" y2="74.5723" gradientUnits="userSpaceOnUse">
<stop stop-color="white"/>
<stop offset="1" stop-color="#EEEEEE"/>
</linearGradient>
<clipPath id="clip0_2657_44138">
<rect width="300" height="200" fill="white"/>
</clipPath>
</defs>
</svg>
