<svg width="280" height="187" viewBox="0 0 280 187" fill="none" xmlns="http://www.w3.org/2000/svg">
<g clip-path="url(#clip0_2521_49238)">
<path d="M215.836 110.141C216.953 130.721 176.719 172.567 127.127 157.078C104.062 149.874 106.016 137.916 88.4772 122.157C78.0236 112.765 63.0032 105.663 58.8256 92.0099C55.2167 80.2256 57.4299 67.5593 63.6867 59.3208C77.7576 40.7923 106.165 28.1048 134.155 57.2976C162.145 86.4907 212.95 57.0649 215.836 110.141Z" fill="url(#paint0_linear_2521_49238)"/>
<path d="M136.972 93.8183V80.6527M136.972 154.823V134.632M116.781 154.823H157.164" stroke="#CBD5E1" stroke-width="6" stroke-linecap="round" stroke-linejoin="round"/>
<path d="M204.807 64.7777C200.893 71.7621 192.322 72.7219 178.591 71.3947C168.264 70.3945 158.847 69.6208 148.519 63.99C141.29 60.0513 135.568 54.7229 131.392 49.5476C126.866 43.941 120.55 37.5427 123.646 31.1858C127.902 22.4535 152.511 15.0988 176.408 27.1258C202.659 40.3415 208.635 57.9513 204.807 64.7777Z" fill="url(#paint1_linear_2521_49238)"/>
<path d="M105.197 150.198C96.0795 137.443 86.7425 123.887 74.5183 117.21C61.9093 110.319 59.5837 114.566 58.711 121.318C57.8381 128.069 61.7285 144.066 78.9361 153.168C96.1483 162.272 113.728 162.136 105.197 150.198Z" fill="url(#paint2_linear_2521_49238)"/>
<path d="M226.684 75.5938C221.913 76.7241 216.867 72.6781 216.867 72.6781C216.867 72.6781 219.559 66.8015 224.332 65.6747C229.103 64.5444 234.148 68.587 234.148 68.587C234.148 68.587 231.455 74.4635 226.684 75.5938Z" fill="url(#paint3_linear_2521_49238)"/>
<path d="M97.4521 25.8322C102.475 29.2918 110.149 26.8735 110.149 26.8735C110.149 26.8735 109.673 18.8465 104.647 15.3904C99.6242 11.9305 91.9541 14.3457 91.9541 14.3457C91.9541 14.3457 92.4292 22.3723 97.4521 25.8319V25.8322Z" fill="url(#paint4_linear_2521_49238)"/>
<path d="M195.967 34.3943C199.764 38.2586 206.864 37.4441 206.864 37.4441C206.864 37.4441 207.803 30.3638 204.003 26.5017C200.206 22.6374 193.11 23.4497 193.11 23.4497C193.11 23.4497 192.17 30.53 195.967 34.3943Z" fill="url(#paint5_linear_2521_49238)"/>
<path d="M206.469 117.264C204.234 117.264 202.422 118.997 202.422 121.135C202.422 123.272 204.234 125.005 206.469 125.005C208.704 125.005 210.516 123.272 210.516 121.135C210.516 118.997 208.704 117.264 206.469 117.264Z" fill="#94D89C"/>
<path d="M179.419 136.889C176.893 136.889 174.844 139.015 174.844 141.639C174.844 144.263 176.893 146.39 179.419 146.39C181.946 146.39 183.994 144.263 183.994 141.639C183.994 139.015 181.946 136.889 179.419 136.889Z" fill="#94D89C"/>
<path d="M68.5272 135.21C65.5148 135.21 63.0728 137.574 63.0728 140.489C63.0728 143.404 65.5148 145.767 68.5272 145.767C71.5395 145.767 73.9816 143.404 73.9816 140.489C73.9816 137.574 71.5395 135.21 68.5272 135.21Z" fill="#94D89C"/>
<path d="M66.9576 75.4264C65.8887 75.4264 65.0222 74.5599 65.0222 73.491C65.0222 72.4221 65.8887 71.5555 66.9576 71.5555C68.0265 71.5555 68.8931 72.4221 68.8931 73.491C68.8931 74.5599 68.0265 75.4264 66.9576 75.4264Z" fill="#94D89C"/>
<path d="M214.211 47.9407C212.17 47.9407 210.516 46.2865 210.516 44.2459C210.516 42.2053 212.17 40.5511 214.211 40.5511C216.251 40.5511 217.906 42.2053 217.906 44.2459C217.906 46.2865 216.251 47.9407 214.211 47.9407Z" fill="#94D89C"/>
<path d="M201.894 158.435C199.854 158.435 198.2 156.86 198.2 154.916C198.2 152.973 199.854 151.397 201.894 151.397C203.935 151.397 205.589 152.973 205.589 154.916C205.589 156.86 203.935 158.435 201.894 158.435Z" fill="#D1D5DB"/>
<path d="M46.1819 112.337C44.0441 112.337 42.311 110.762 42.311 108.818C42.311 106.875 44.0441 105.299 46.1819 105.299C48.3197 105.299 50.0527 106.875 50.0527 108.818C50.0527 110.762 48.3197 112.337 46.1819 112.337Z" fill="#D1D5DB"/>
<path d="M85.4181 159.491C84.7378 159.491 84.1864 158.939 84.1864 158.259C84.1864 157.579 84.7378 157.027 85.4181 157.027C86.0983 157.027 86.6498 157.579 86.6498 158.259C86.6498 158.939 86.0983 159.491 85.4181 159.491Z" fill="#D1D5DB"/>
<path d="M207.404 75.0742C206.432 75.0742 205.644 74.2865 205.644 73.3149C205.644 72.3432 206.432 71.5555 207.404 71.5555C208.375 71.5555 209.163 72.3432 209.163 73.3149C209.163 74.2865 208.375 75.0742 207.404 75.0742Z" fill="#D1D5DB"/>
<path d="M68.8714 95.3455C69.1172 96.2627 68.5729 97.2054 67.6558 97.4511C66.7386 97.6969 65.7959 97.1526 65.5502 96.2354C65.3044 95.3183 65.8487 94.3756 66.7658 94.1299C67.683 93.8841 68.6257 94.4284 68.8714 95.3455Z" fill="#D1D5DB"/>
<path d="M80.9984 73.9524C79.7351 73.9524 78.7111 72.9283 78.7111 71.6651C78.7111 70.4019 79.7351 69.3778 80.9984 69.3778C82.2616 69.3778 83.2856 70.4019 83.2856 71.6651C83.2856 72.9283 82.2616 73.9524 80.9984 73.9524Z" fill="#D1D5DB"/>
<path d="M209.108 98.9653C208.137 98.9653 207.349 98.3352 207.349 97.5579C207.349 96.7805 208.137 96.1504 209.108 96.1504C210.08 96.1504 210.868 96.7805 210.868 97.5579C210.868 98.3352 210.08 98.9653 209.108 98.9653Z" fill="#D1D5DB"/>
<path d="M138.561 20.4928C139.073 22.4018 137.94 24.3639 136.031 24.8755C134.122 25.387 132.16 24.2541 131.648 22.3451C131.137 20.4362 132.27 18.474 134.179 17.9625C136.087 17.451 138.05 18.5839 138.561 20.4928Z" fill="#D1D5DB"/>
<path d="M234.421 96.8539H234.467C234.74 100.716 237.611 100.775 237.611 100.775C237.611 100.775 234.445 100.837 234.445 105.299C234.445 100.837 231.278 100.775 231.278 100.775C231.278 100.775 234.148 100.716 234.421 96.8539ZM83.2661 35.9766H83.3451C83.8146 42.7348 88.761 42.8387 88.761 42.8387C88.761 42.8387 83.3066 42.947 83.3066 50.7559C83.3066 42.947 77.8522 42.8387 77.8522 42.8387C77.8522 42.8387 82.7967 42.7348 83.2661 35.9766Z" fill="#D1D5DB"/>
<path d="M172.106 33.9111H116.512C113.819 33.9111 111.262 34.8535 109.175 36.4688L94.4351 48.2471C83.4165 57.7503 83.4165 57.167 94.4351 66.6217L109.175 78.4C111.262 80.0828 113.887 80.9577 116.512 80.9577H172.106C173.654 80.9617 175.187 80.6597 176.618 80.0692C178.049 79.4787 179.349 78.6113 180.443 77.5167C181.538 76.4222 182.405 75.1222 182.996 73.6914C183.586 72.2606 183.888 70.7272 183.884 69.1793V45.6223C183.884 39.1608 178.634 33.9111 172.106 33.9111ZM101.974 87.5181H157.568C160.26 87.5181 162.818 88.4601 164.904 90.0757L179.645 101.854C189.583 110.834 189 111.417 179.645 120.228L164.904 132.007C162.818 133.689 160.193 134.565 157.568 134.565H101.974C100.426 134.569 98.8923 134.267 97.4615 133.676C96.0307 133.085 94.7307 132.218 93.6361 131.123C92.5416 130.029 91.6742 128.729 91.0837 127.298C90.4932 125.867 90.1913 124.334 90.1952 122.786V99.2292C90.1952 92.7678 95.4449 87.5181 101.974 87.5181Z" fill="#3B82F6"/>
<rect x="123" y="50" width="27" height="4" rx="2" fill="white"/>
<rect x="154" y="50" width="18" height="4" rx="2" fill="white"/>
<rect x="122.5" y="60.667" width="49" height="4" rx="2" fill="white"/>
<rect x="103.833" y="103.833" width="46.6667" height="4" rx="2" fill="white"/>
<rect x="103.833" y="114.5" width="31.5" height="4" rx="2" fill="white"/>
</g>
<defs>
<linearGradient id="paint0_linear_2521_49238" x1="167.747" y1="233.498" x2="92.4865" y2="-106.054" gradientUnits="userSpaceOnUse">
<stop offset="0.177083" stop-color="white"/>
<stop offset="1" stop-color="#EEEEEE"/>
</linearGradient>
<linearGradient id="paint1_linear_2521_49238" x1="178.443" y1="110.043" x2="143.561" y2="-46.7018" gradientUnits="userSpaceOnUse">
<stop offset="0.369792" stop-color="white"/>
<stop offset="1" stop-color="#EEEEEE"/>
</linearGradient>
<linearGradient id="paint2_linear_2521_49238" x1="95.0165" y1="192.069" x2="65.1037" y2="53.7379" gradientUnits="userSpaceOnUse">
<stop offset="0.416667" stop-color="white"/>
<stop offset="1" stop-color="#EEEEEE"/>
</linearGradient>
<linearGradient id="paint3_linear_2521_49238" x1="208.718" y1="78.4041" x2="250.483" y2="58.6728" gradientUnits="userSpaceOnUse">
<stop stop-color="white"/>
<stop offset="1" stop-color="#EEEEEE"/>
</linearGradient>
<linearGradient id="paint4_linear_2521_49238" x1="117.018" y1="37.1837" x2="77.4794" y2="-4.50862" gradientUnits="userSpaceOnUse">
<stop stop-color="white"/>
<stop offset="1" stop-color="#EEEEEE"/>
</linearGradient>
<linearGradient id="paint5_linear_2521_49238" x1="211.116" y1="47.5941" x2="183.667" y2="4.56557" gradientUnits="userSpaceOnUse">
<stop stop-color="white"/>
<stop offset="1" stop-color="#EEEEEE"/>
</linearGradient>
<clipPath id="clip0_2521_49238">
<rect width="280" height="186.667" fill="white"/>
</clipPath>
</defs>
</svg>
