<svg width="201" height="119" viewBox="0 0 201 119" fill="none" xmlns="http://www.w3.org/2000/svg">
<path d="M179.107 117.557H20.8532C16.1744 117.557 12.3798 113.763 12.3798 109.084V9.92745C12.3798 5.24861 16.1744 1.45406 20.8532 1.45406H179.107C183.786 1.45406 187.58 5.24861 187.58 9.92745V109.084C187.58 113.763 183.786 117.557 179.107 117.557V117.557Z" fill="white" stroke="#DBDBDB" stroke-width="2"/>
<path d="M187.58 9.92745C187.58 10.6363 187.299 11.3162 186.797 11.8174C186.296 12.3186 185.616 12.6002 184.907 12.6002H15.0529C14.344 12.6002 13.6641 12.3186 13.1629 11.8174C12.6616 11.3162 12.3799 10.6363 12.3798 9.92745C12.3798 5.24861 16.1744 1.45406 20.8532 1.45406H179.107C183.786 1.45406 187.58 5.24861 187.58 9.92745V9.92745Z" fill="white" stroke="#DBDBDB" stroke-width="2"/>
<path d="M20.8701 9.38408C21.1293 9.3874 21.3865 9.33922 21.6269 9.24235C21.8672 9.14548 22.086 9.00184 22.2704 8.81976C22.4548 8.63769 22.6012 8.42081 22.7012 8.1817C22.8011 7.94259 22.8526 7.68602 22.8526 7.42687C22.8526 7.16771 22.8011 6.91114 22.7012 6.67203C22.6012 6.43292 22.4548 6.21604 22.2704 6.03397C22.086 5.8519 21.8672 5.70826 21.6269 5.61138C21.3865 5.51451 21.1293 5.46634 20.8701 5.46966C20.3554 5.47625 19.864 5.68535 19.5023 6.05168C19.1406 6.41801 18.9378 6.91208 18.9378 7.42687C18.9378 7.94166 19.1406 8.43572 19.5023 8.80205C19.864 9.16839 20.3554 9.37749 20.8701 9.38408V9.38408ZM29.0256 9.38408C29.2847 9.3874 29.5419 9.33922 29.7823 9.24235C30.0227 9.14548 30.2414 9.00184 30.4258 8.81976C30.6102 8.63769 30.7567 8.42081 30.8566 8.1817C30.9565 7.94259 31.008 7.68602 31.008 7.42687C31.008 7.16771 30.9565 6.91114 30.8566 6.67203C30.7567 6.43292 30.6102 6.21604 30.4258 6.03397C30.2414 5.8519 30.0227 5.70826 29.7823 5.61138C29.5419 5.51451 29.2847 5.46634 29.0256 5.46966C28.5108 5.47625 28.0194 5.68535 27.6577 6.05168C27.2961 6.41801 27.0933 6.91208 27.0933 7.42687C27.0933 7.94166 27.2961 8.43572 27.6577 8.80205C28.0194 9.16839 28.5108 9.37749 29.0256 9.38408V9.38408ZM36.8551 9.38408C37.1142 9.3874 37.3714 9.33922 37.6118 9.24235C37.8522 9.14548 38.0709 9.00184 38.2553 8.81976C38.4397 8.63769 38.5862 8.42081 38.6861 8.1817C38.786 7.94259 38.8375 7.68602 38.8375 7.42687C38.8375 7.16771 38.786 6.91114 38.6861 6.67203C38.5862 6.43292 38.4397 6.21604 38.2553 6.03397C38.0709 5.8519 37.8522 5.70826 37.6118 5.61138C37.3714 5.51451 37.1142 5.46634 36.8551 5.46966C36.3403 5.47625 35.8489 5.68535 35.4872 6.05168C35.1256 6.41801 34.9228 6.91208 34.9228 7.42687C34.9228 7.94166 35.1256 8.43572 35.4872 8.80205C35.8489 9.16839 36.3403 9.37749 36.8551 9.38408Z" fill="#E1E4E5"/>
<path d="M70.1061 28.2695H3.52981C1.58035 28.2695 0 29.8499 0 31.7993V52.9788C0 54.9283 1.58035 56.5086 3.52981 56.5086H70.1061C72.0555 56.5086 73.6359 54.9283 73.6359 52.9788V31.7993C73.6359 29.8499 72.0555 28.2695 70.1061 28.2695Z" fill="#3B82F6"/>
<path d="M64.4029 36.9414H22.8279C21.9122 36.9414 21.1699 37.6836 21.1699 38.5993C21.1699 39.5149 21.9122 40.2571 22.8279 40.2571H64.4029C65.3186 40.2571 66.0609 39.5149 66.0609 38.5993C66.0609 37.6836 65.3186 36.9414 64.4029 36.9414Z" fill="white"/>
<path d="M48.5891 44.3398H22.8279C21.9122 44.3398 21.1699 45.0821 21.1699 45.9977C21.1699 46.9133 21.9122 47.6555 22.8279 47.6555H48.5891C49.5048 47.6555 50.2472 46.9133 50.2472 45.9977C50.2472 45.0821 49.5048 44.3398 48.5891 44.3398Z" fill="white"/>
<path d="M11.9878 47.6542C14.946 47.6542 17.3442 45.2561 17.3442 42.2978C17.3442 39.3395 14.946 36.9414 11.9878 36.9414C9.02949 36.9414 6.63135 39.3395 6.63135 42.2978C6.63135 45.2561 9.02949 47.6542 11.9878 47.6542Z" fill="white"/>
<path d="M127.03 60.3164H112.713C112.241 60.3164 111.859 60.6989 111.859 61.1708V74.4247C111.859 74.8966 112.241 75.2791 112.713 75.2791H127.03C127.502 75.2791 127.885 74.8966 127.885 74.4247V61.1708C127.885 60.6989 127.502 60.3164 127.03 60.3164Z" fill="#3B82F6"/>
<path d="M169.762 102.566H132.383C131.56 102.566 130.893 103.234 130.893 104.057C130.893 104.88 131.56 105.547 132.383 105.547H169.762C170.586 105.547 171.253 104.88 171.253 104.057C171.253 103.234 170.586 102.566 169.762 102.566Z" fill="white"/>
<path d="M130.775 71.9699V94.9391C130.775 95.7785 131.455 96.4589 132.295 96.4589H132.295C133.134 96.4589 133.815 95.7785 133.815 94.9391V71.9699C133.815 71.1305 133.134 70.45 132.295 70.45H132.295C131.455 70.45 130.775 71.1305 130.775 71.9699Z" fill="white"/>
<path d="M143.948 71.9698V94.9391C143.948 95.7785 144.628 96.4589 145.468 96.4589H145.468C146.308 96.4589 146.988 95.7785 146.988 94.9391V71.9698C146.988 71.1304 146.308 70.45 145.468 70.45H145.468C144.628 70.45 143.948 71.1304 143.948 71.9698Z" fill="white"/>
<path d="M157.121 71.9698V94.9391C157.121 95.7785 157.802 96.4589 158.641 96.4589H158.642C159.481 96.4589 160.161 95.7785 160.161 94.9391V71.9698C160.161 71.1304 159.481 70.45 158.642 70.45H158.641C157.802 70.45 157.121 71.1304 157.121 71.9698Z" fill="white"/>
<path d="M155.545 109.218H132.383C131.56 109.218 130.893 109.885 130.893 110.708C130.893 111.531 131.56 112.199 132.383 112.199H155.545C156.368 112.199 157.035 111.531 157.035 110.708C157.035 109.885 156.368 109.218 155.545 109.218Z" fill="white"/>
<path d="M137.53 80.9208V95.108C137.53 95.8541 138.135 96.4589 138.881 96.4589H138.881C139.627 96.4589 140.232 95.8541 140.232 95.108V80.9208C140.232 80.1747 139.627 79.5698 138.881 79.5698H138.881C138.135 79.5698 137.53 80.1747 137.53 80.9208Z" fill="white"/>
<path d="M150.704 80.9208V95.108C150.704 95.8541 151.308 96.4589 152.054 96.4589H152.055C152.801 96.4589 153.406 95.8541 153.406 95.108V80.9208C153.406 80.1747 152.801 79.5698 152.055 79.5698H152.054C151.308 79.5698 150.704 80.1747 150.704 80.9208Z" fill="white"/>
<path d="M163.877 80.9208V95.108C163.877 95.8541 164.482 96.4589 165.228 96.4589H165.228C165.974 96.4589 166.579 95.8541 166.579 95.108V80.9208C166.579 80.1747 165.974 79.5698 165.228 79.5698H165.228C164.482 79.5698 163.877 80.1747 163.877 80.9208Z" fill="white"/>
<path d="M122.637 112.198C125.297 112.198 127.453 110.042 127.453 107.382C127.453 104.722 125.297 102.566 122.637 102.566C119.977 102.566 117.821 104.722 117.821 107.382C117.821 110.042 119.977 112.198 122.637 112.198Z" fill="white"/>
<path d="M194.231 9.05571H131.389C128.203 9.05571 125.62 11.6387 125.62 14.8249V31.0208C125.62 34.207 128.203 36.79 131.389 36.79H194.231C197.417 36.79 200 34.207 200 31.0208V14.8249C200 11.6387 197.417 9.05571 194.231 9.05571Z" fill="white" stroke="#DBDBDB" stroke-width="2"/>
<path d="M191.154 17.3254H148.435C147.494 17.3254 146.731 18.0881 146.731 19.029C146.731 19.9698 147.494 20.7325 148.435 20.7325H191.154C192.095 20.7325 192.858 19.9698 192.858 19.029C192.858 18.0881 192.095 17.3254 191.154 17.3254Z" fill="#DBDBDB"/>
<path d="M174.905 24.9257H148.435C147.494 24.9257 146.731 25.6884 146.731 26.6293C146.731 27.5701 147.494 28.3328 148.435 28.3328H174.905C175.846 28.3328 176.609 27.5701 176.609 26.6293C176.609 25.6884 175.846 24.9257 174.905 24.9257Z" fill="#DBDBDB"/>
<path fill-rule="evenodd" clip-rule="evenodd" d="M136.97 30.2368C132.959 30.2368 129.707 26.9391 129.707 22.8721C129.707 18.8051 132.959 15.5077 136.97 15.5077C140.98 15.5077 144.232 18.8051 144.232 22.8721C144.232 26.9391 140.98 30.2368 136.97 30.2368Z" fill="#94D89C"/>
<path d="M139.527 21.6445L136.459 24.9176L134.617 22.9541" stroke="white" stroke-width="3.568" stroke-linecap="round" stroke-linejoin="round"/>
<path d="M54.6599 91.3652H37.0541M29.1663 68.439L25.5641 72.0377L23.8141 70.2928L29.1663 68.439ZM36.9711 66.7168H47.6173H36.9711ZM37.0541 71.9986H54.6599H37.0541ZM29.1663 80.7633L25.5641 84.362L23.8141 82.6172L29.1663 80.7633ZM36.9711 79.0412H47.6173H36.9711ZM37.0541 84.3229H54.6599H37.0541ZM54.6599 96.647H36.9711H54.6599Z" stroke="#DBDBDB" stroke-width="3" stroke-linecap="round" stroke-linejoin="round"/>
<path d="M26.4901 99.9085C29.2633 99.9085 31.5116 97.6604 31.5116 94.8873C31.5116 92.1139 29.2633 89.8662 26.4901 89.8662C23.7172 89.8662 21.469 92.1139 21.469 94.8873C21.469 97.6603 23.7172 99.9085 26.4901 99.9085Z" stroke="#DBDBDB" stroke-width="3" stroke-linecap="round" stroke-linejoin="round"/>
<path d="M82.5712 66.7168H93.2177M82.6542 71.9986H100.26M82.5712 79.0412H93.2177M82.6542 84.3229H100.26M100.26 96.647H82.5712M100.26 91.3652H82.6542M74.7667 68.439L71.1644 72.0377L69.4145 70.2928L74.7667 68.439ZM74.7667 80.7633L71.1644 84.362L69.4145 82.6172L74.7667 80.7633Z" stroke="#DBDBDB" stroke-width="3" stroke-linecap="round" stroke-linejoin="round"/>
<path d="M72.0904 99.9085C74.8638 99.9085 77.1115 97.6602 77.1115 94.8873C77.1115 92.114 74.8637 89.8662 72.0904 89.8662C69.3175 89.8662 67.0692 92.1139 67.0692 94.8873C67.0692 97.6603 69.3174 99.9085 72.0904 99.9085Z" stroke="#DBDBDB" stroke-width="3" stroke-linecap="round" stroke-linejoin="round"/>
<path fill-rule="evenodd" clip-rule="evenodd" d="M120.429 39.7088H119.734C119.653 39.7087 119.576 39.6767 119.519 39.6198C119.462 39.5629 119.43 39.4857 119.43 39.4052V38.7094C119.43 38.5411 119.567 38.4059 119.734 38.4059H120.429C120.51 38.4061 120.587 38.4382 120.644 38.495C120.701 38.5519 120.733 38.629 120.733 38.7094V39.4052C120.733 39.4451 120.725 39.4846 120.71 39.5215C120.695 39.5584 120.672 39.5919 120.644 39.6201C120.616 39.6483 120.583 39.6707 120.546 39.6859C120.509 39.7011 120.469 39.7089 120.429 39.7088V39.7088ZM118.017 39.7088H117.321C117.241 39.7085 117.164 39.6764 117.107 39.6196C117.05 39.5627 117.018 39.4856 117.018 39.4052V38.7094C117.018 38.5411 117.155 38.4059 117.321 38.4059H118.017C118.098 38.4061 118.175 38.4382 118.232 38.495C118.288 38.5519 118.32 38.629 118.321 38.7094V39.4052C118.32 39.4856 118.288 39.5627 118.232 39.6196C118.175 39.6764 118.098 39.7085 118.017 39.7088V39.7088ZM115.603 39.7088H114.908C114.827 39.7085 114.75 39.6764 114.693 39.6196C114.637 39.5627 114.604 39.4857 114.604 39.4052V38.7094C114.604 38.5411 114.741 38.4059 114.908 38.4059H115.603C115.77 38.4059 115.907 38.5427 115.907 38.7094V39.4052C115.907 39.4451 115.899 39.4846 115.884 39.5215C115.869 39.5584 115.847 39.5919 115.818 39.6201C115.79 39.6483 115.757 39.6706 115.72 39.6858C115.683 39.701 115.643 39.7088 115.603 39.7088V39.7088ZM113.191 39.7088H112.496C112.415 39.7085 112.338 39.6764 112.281 39.6196C112.224 39.5627 112.192 39.4857 112.192 39.4052V38.7094C112.192 38.5411 112.329 38.4059 112.496 38.4059H113.191C113.36 38.4059 113.496 38.5427 113.496 38.7094V39.4052C113.496 39.4857 113.463 39.5627 113.406 39.6195C113.349 39.6763 113.272 39.7083 113.191 39.7088V39.7088ZM110.779 39.7088H110.083C110.003 39.7088 109.925 39.6768 109.868 39.6199C109.811 39.5631 109.779 39.4859 109.778 39.4052V38.7094C109.778 38.5411 109.915 38.4059 110.083 38.4059H110.779C110.859 38.4061 110.937 38.4382 110.993 38.495C111.05 38.5519 111.082 38.629 111.083 38.7094V39.4052C111.082 39.4856 111.05 39.5627 110.993 39.6196C110.937 39.6764 110.859 39.7085 110.779 39.7088V39.7088ZM117.929 37.0783H117.233C117.153 37.0781 117.076 37.046 117.019 36.9891C116.962 36.9323 116.93 36.8552 116.929 36.7748V36.0777C116.929 35.9107 117.066 35.7738 117.233 35.7738H117.929C118.097 35.7738 118.233 35.9107 118.233 36.0777V36.7732C118.233 36.8132 118.225 36.8529 118.21 36.8899C118.195 36.9269 118.172 36.9606 118.144 36.989C118.116 37.0173 118.082 37.0398 118.045 37.0551C118.008 37.0705 117.969 37.0783 117.929 37.0783V37.0783ZM115.517 37.0783H114.821C114.74 37.078 114.663 37.046 114.606 36.9891C114.55 36.9323 114.517 36.8552 114.517 36.7748V36.0777C114.517 35.9107 114.654 35.7738 114.821 35.7738H115.517C115.684 35.7738 115.82 35.9107 115.82 36.0777V36.7732C115.821 36.8132 115.813 36.8529 115.798 36.8899C115.783 36.9269 115.76 36.9606 115.732 36.989C115.704 37.0173 115.67 37.0398 115.633 37.0551C115.596 37.0705 115.557 37.0783 115.517 37.0783V37.0783ZM113.104 37.0783H112.409C112.328 37.0783 112.251 37.0464 112.193 36.9895C112.136 36.9326 112.104 36.8554 112.103 36.7748V36.0777C112.103 35.9107 112.24 35.7738 112.409 35.7738H113.104C113.271 35.7738 113.408 35.9107 113.408 36.0777V36.7732C113.408 36.8538 113.376 36.9312 113.319 36.9884C113.262 37.0455 113.185 37.0779 113.104 37.0783V37.0783ZM115.603 42.5347H114.908C114.827 42.5345 114.75 42.5024 114.693 42.4454C114.636 42.3885 114.604 42.3114 114.604 42.2309V41.5354C114.604 41.3671 114.741 41.2315 114.908 41.2315H115.603C115.77 41.2315 115.907 41.3684 115.907 41.5354V42.2309C115.907 42.2708 115.9 42.3103 115.884 42.3472C115.869 42.3841 115.847 42.4177 115.818 42.4459C115.79 42.4741 115.757 42.4965 115.72 42.5118C115.683 42.527 115.643 42.5348 115.603 42.5347V42.5347ZM113.191 42.5347H112.496C112.415 42.5345 112.338 42.5024 112.281 42.4454C112.224 42.3885 112.192 42.3114 112.192 42.2309V41.5354C112.192 41.3671 112.329 41.2315 112.496 41.2315H113.191C113.36 41.2315 113.496 41.3684 113.496 41.5354V42.2309C113.496 42.3114 113.463 42.3885 113.406 42.4453C113.349 42.5022 113.272 42.5343 113.191 42.5347V42.5347ZM108.269 28.8998H107.574C107.493 28.8997 107.416 28.8677 107.359 28.8108C107.302 28.7539 107.27 28.6767 107.27 28.5963V27.9004C107.27 27.7322 107.407 27.5969 107.574 27.5969H108.269C108.35 27.5971 108.427 27.6292 108.484 27.6861C108.541 27.7429 108.573 27.82 108.573 27.9004V28.5963C108.573 28.6361 108.565 28.6757 108.55 28.7126C108.535 28.7494 108.513 28.783 108.484 28.8112C108.456 28.8394 108.423 28.8617 108.386 28.8769C108.349 28.8921 108.309 28.8999 108.269 28.8998V28.8998ZM105.857 28.8998H105.161C105.081 28.8994 105.004 28.8674 104.947 28.8105C104.89 28.7537 104.858 28.6767 104.858 28.5963V27.9004C104.858 27.7322 104.995 27.5969 105.161 27.5969H105.857C105.938 27.5971 106.015 27.6292 106.072 27.6861C106.128 27.7429 106.161 27.82 106.161 27.9004V28.5963C106.161 28.6767 106.128 28.7537 106.072 28.8106C106.015 28.8675 105.938 28.8995 105.857 28.8998V28.8998ZM103.443 28.8998H102.748C102.667 28.8995 102.59 28.8675 102.533 28.8106C102.476 28.7537 102.444 28.6767 102.444 28.5963V27.9004C102.444 27.7322 102.581 27.5969 102.748 27.5969H103.443C103.61 27.5969 103.747 27.7338 103.747 27.9004V28.5963C103.747 28.6362 103.74 28.6757 103.724 28.7125C103.709 28.7494 103.687 28.7829 103.658 28.8111C103.63 28.8393 103.597 28.8616 103.56 28.8769C103.523 28.8921 103.483 28.8999 103.443 28.8998ZM101.031 28.8998H100.335C100.255 28.8995 100.178 28.8675 100.121 28.8106C100.064 28.7537 100.032 28.6767 100.032 28.5963V27.9004C100.032 27.7322 100.169 27.5969 100.335 27.5969H101.031C101.2 27.5969 101.336 27.7338 101.336 27.9004V28.5963C101.336 28.6767 101.303 28.7537 101.246 28.8104C101.189 28.8672 101.112 28.8993 101.031 28.8998V28.8998ZM98.6191 28.8998H97.9233C97.8426 28.8998 97.7653 28.8679 97.7081 28.811C97.6509 28.7541 97.6186 28.6769 97.6182 28.5963V27.9004C97.6182 27.7322 97.755 27.5969 97.9233 27.5969H98.6191C98.6995 27.5971 98.7766 27.6292 98.8335 27.6861C98.8903 27.7429 98.9224 27.82 98.9227 27.9004V28.5963C98.9224 28.6767 98.8903 28.7537 98.8335 28.8106C98.7766 28.8675 98.6995 28.8995 98.6191 28.8998V28.8998ZM105.769 26.2693H105.073C104.993 26.2691 104.915 26.237 104.859 26.1802C104.802 26.1233 104.77 26.0462 104.769 25.9658V25.2687C104.769 25.1017 104.906 24.9648 105.073 24.9648H105.769C105.937 24.9648 106.072 25.1017 106.072 25.2687V25.9642C106.073 26.0042 106.065 26.0439 106.05 26.0809C106.035 26.1179 106.012 26.1516 105.984 26.18C105.956 26.2083 105.922 26.2308 105.885 26.2462C105.848 26.2615 105.809 26.2694 105.769 26.2693V26.2693ZM103.357 26.2693H102.661C102.58 26.2691 102.503 26.237 102.446 26.1802C102.39 26.1233 102.358 26.0462 102.357 25.9658V25.2687C102.357 25.1017 102.494 24.9648 102.661 24.9648H103.357C103.523 24.9648 103.66 25.1017 103.66 25.2687V25.9642C103.66 26.0042 103.653 26.0439 103.638 26.0809C103.622 26.1179 103.6 26.1516 103.572 26.18C103.544 26.2083 103.51 26.2308 103.473 26.2462C103.436 26.2615 103.397 26.2694 103.357 26.2693V26.2693ZM100.944 26.2693H100.249C100.168 26.2693 100.091 26.2374 100.033 26.1805C99.9762 26.1237 99.9439 26.0465 99.9435 25.9658V25.2687C99.9435 25.1017 100.08 24.9648 100.249 24.9648H100.944C101.111 24.9648 101.248 25.1017 101.248 25.2687V25.9642C101.248 26.0449 101.216 26.1222 101.159 26.1794C101.102 26.2366 101.025 26.2689 100.944 26.2693V26.2693ZM103.443 31.7257H102.748C102.667 31.7253 102.59 31.6932 102.533 31.6363C102.477 31.5794 102.444 31.5023 102.444 31.4219V30.7261C102.444 30.5581 102.581 30.4225 102.748 30.4225H103.443C103.61 30.4225 103.747 30.5594 103.747 30.7261V31.4219C103.747 31.4618 103.74 31.5013 103.724 31.5382C103.709 31.5751 103.687 31.6086 103.658 31.6368C103.63 31.6651 103.597 31.6874 103.56 31.7027C103.523 31.718 103.483 31.7258 103.443 31.7257V31.7257ZM101.031 31.7257H100.335C100.255 31.7253 100.178 31.6932 100.121 31.6363C100.064 31.5794 100.032 31.5023 100.032 31.4219V30.7261C100.032 30.5581 100.169 30.4225 100.335 30.4225H101.031C101.2 30.4225 101.336 30.5594 101.336 30.7261V31.4219C101.335 31.5024 101.303 31.5793 101.246 31.6361C101.189 31.6929 101.112 31.7251 101.031 31.7257V31.7257Z" fill="#DBDBDB"/>
<path d="M80.7723 46.2895C81.9155 50.5562 86.3012 53.0882 90.5679 51.945C94.8346 50.8017 97.3666 46.4161 96.2234 42.1494C95.0801 37.8827 90.6945 35.3506 86.4278 36.4939C82.1611 37.6371 79.629 42.0228 80.7723 46.2895Z" fill="url(#paint0_linear_649_7514)"/>
<path d="M82.9799 45.697C83.7965 48.7446 86.929 50.5532 89.9766 49.7366C93.0242 48.92 94.8328 45.7874 94.0162 42.7398C93.1996 39.6922 90.067 37.8837 87.0194 38.7003C83.9718 39.5169 82.1633 42.6494 82.9799 45.697Z" fill="white"/>
<path d="M90.568 51.9444C89.2976 52.2848 87.9628 52.3066 86.6818 52.0079C85.4009 51.7092 84.2134 51.0993 83.2246 50.2321C82.2357 49.3648 81.476 48.2671 81.0126 47.0361C80.5493 45.8052 80.3968 44.4789 80.5684 43.1749C80.7401 41.8709 81.2307 40.6293 81.9968 39.5602C82.7629 38.4911 83.7808 37.6274 84.9605 37.0456C86.1401 36.4638 87.445 36.182 88.7595 36.225C90.0741 36.268 91.3578 36.6345 92.4969 37.2921L91.2972 39.3703C90.5 38.9097 89.6014 38.6529 88.6812 38.6228C87.761 38.5926 86.8475 38.7901 86.0219 39.1976C85.196 39.6046 84.4832 40.2091 83.9468 40.9575C83.4104 41.7058 83.0668 42.575 82.9466 43.4879C82.8264 44.4008 82.9333 45.3292 83.2577 46.1909C83.5821 47.0526 84.1141 47.821 84.8065 48.428C85.4988 49.0349 86.33 49.4618 87.2266 49.6709C88.1232 49.8799 89.0575 49.8648 89.9469 49.6267L90.568 51.9444Z" fill="#94D89C"/>
<defs>
<linearGradient id="paint0_linear_649_7514" x1="72.1979" y1="48.9404" x2="112.992" y2="37.4989" gradientUnits="userSpaceOnUse">
<stop stop-color="white"/>
<stop offset="1" stop-color="#EEEEEE"/>
</linearGradient>
</defs>
</svg>
