<svg version="1.1" id="TESTKUBE_logos" xmlns="http://www.w3.org/2000/svg" xmlns:xlink="http://www.w3.org/1999/xlink" x="0px"
	 y="0px" viewBox="0 0 139.3 139.3" style="enable-background:new 0 0 139.3 139.3;" xml:space="preserve">
<style type="text/css">
	.st0{fill:#010101;}
	.st1{fill:url(#SVGID_1_);}
	.st2{fill:url(#SVGID_2_);}
</style>
<rect y="0" class="st0" width="139.3" height="139.3"/>
<g id="Feathered_Hat_Image_10_">
	
		<linearGradient id="SVGID_1_" gradientUnits="userSpaceOnUse" x1="-150.0315" y1="221.2014" x2="-128.0878" y2="255.6339" gradientTransform="matrix(0.9808 0.1951 0.186 -0.9354 187.3739 312.6721)">
		<stop  offset="0" style="stop-color:#A1D7D8"/>
		<stop  offset="0.24" style="stop-color:#7FC9C7"/>
		<stop  offset="0.7675" style="stop-color:#28A79B"/>
		<stop  offset="1" style="stop-color:#009787"/>
	</linearGradient>
	<path class="st1" d="M111,59.5c2.1-6.3-1.4-13.2-7.8-14.8c-2.6-0.6-6-1-7.8,1.2c-2.5,3.1,3.3,6.9,3.7,8.7c0.4,1.6,0.7,5.3-4.1,10.7
		C90.2,70.9,81.4,75.6,81.8,76c0.5,0.5,2.1,3,2.6,2.9c9.3-0.6,17.6-5,22.9-12.3C108.9,64.4,110.1,62,111,59.5z"/>
	
		<linearGradient id="SVGID_2_" gradientUnits="userSpaceOnUse" x1="-179.9465" y1="401.3155" x2="-148.8775" y2="447.8114" gradientTransform="matrix(0.9808 0.1951 0.1951 -0.9808 146.9548 515.8954)">
		<stop  offset="0" style="stop-color:#A1D7D8"/>
		<stop  offset="0.24" style="stop-color:#7FC9C7"/>
		<stop  offset="0.7675" style="stop-color:#28A79B"/>
		<stop  offset="1" style="stop-color:#009787"/>
	</linearGradient>
	<path class="st2" d="M85.4,87.2c-1.3-2.2-2.9-4.1-4.7-5.9c-11.9-11.6-24.4-19-28.1-20.2c-0.9-0.3,0.9-2.7,1.4-2.6
		c3.1,0.8,19.6,9.4,24.8,15.2c0.5,0.6,14.9-8.8,16.5-16.3c0.2-1.1,0-2.2-0.7-3.1c-6.3-9.1-23.3-14.5-31.6-16.4
		c-2.5-0.6-4.9,1-5.5,3.4c0,0.1,0,0.1,0,0.2c-0.9,5.7-3.3,11-6.8,15.6l0-0.1c-1.4,2.1-4.5,0.8-4.5,0.8c-8.5-3.6-15.2-4.3-17.5-1.1
		c-3.8,5.2,6.2,19,22.3,30.9s32.4,17.2,36.2,12C88.8,97.2,88.4,92.4,85.4,87.2z M70.3,90c-1.4,1.9-8.8-1.1-16.4-6.7
		C46.1,77.6,41,71.6,42.4,69.7c1.4-1.9,8.7,1.1,16.4,6.7C66.6,82,71.7,88.2,70.3,90L70.3,90z"/>
</g>
</svg>