<svg xmlns="http://www.w3.org/2000/svg" width="63.23" height="48.852" viewBox="0 0 63.23 48.852">
  <g id="Layer_2" data-name="Layer 2" transform="translate(-0.004 0.001)">
    <g id="Layer_2-2" data-name="Layer 2" transform="translate(0.004 -0.001)">
      <path id="Path_270" data-name="Path 270" d="M176.167,7.1C175.152-.366,165-2.675,160.973,3.733c.254,2.429,5.584,1.957,5.426,4.47-1.638-.175.368,5.418-1.092,9.416h0c-.027.076-.057.15-.087.227s-.082.2-.126.295h0c-.063.273-.134.521-.21.781l-.025.085c-.074.248-.153.491-.237.734l-.041.117c-.085.237-.175.472-.273.707-.014.038-.03.079-.046.117-.1.235-.2.467-.308.7,0,.033-.03.066-.046.1q-.169.355-.352.7l-.022.041c-.128.24-.273.475-.4.707a.251.251,0,0,0,0,.027c-.136.229-.273.453-.426.677-.016.025-.03.049-.046.071-.145.216-.292.426-.442.636l-.06.082c-.153.2-.308.409-.469.606l-.057.071c-.164.2-.333.4-.5.595l-.033.035a15.332,15.332,0,0,1-1.146,1.16h-.016c-.194.177-.39.349-.592.513l-.046.038c-.2.164-.4.317-.6.467l-.055.041c-.2.15-.409.292-.62.431l-.044.027q-.322.21-.655.4-.546.311-1.092.565c-.314-.57-.974-.273-.783.188a2.208,2.208,0,0,0,.753,1.668h0l.038.027.093.066a1.543,1.543,0,0,0,.161.093l.109.052.156.063.1.03a2.388,2.388,0,0,0,.24.063h.066q.112.022.229.033h.363a2.836,2.836,0,0,0,.423-.022h.014a2.882,2.882,0,0,0,.448-.06h0a18.033,18.033,0,0,0,7.058-3.548l-.161.156C171.726,23.3,176.863,15.324,176.167,7.1Z" transform="translate(-113 0.001)" fill="#564bfb"/>
      <path id="Path_271" data-name="Path 271" d="M45.152,41.905a2.047,2.047,0,0,1-.423-1.46H44.7a4.164,4.164,0,0,1-3.48-1.577c-.022-.016-.046-.027-.068-.046C30.843,30,23.1,28.316,19.9,28.013c-.734-.068-.892-.62-.524-1.258l.251-.723c.194-.336.546-.273.944-.251,2.519.164,12.4-.306,21.913,7.958.087,0,.177-.016.273-.016a2.617,2.617,0,0,1,.486.046,15.211,15.211,0,0,0,6.853-9.4l.049-.2.09-.188c.767-1.638.625-3.987.51-5.871,0-.2-.025-.388-.035-.576-5.816-6.733-19.986-8.07-26.918-8.31a3.581,3.581,0,0,0-3.7,3.638,26.616,26.616,0,0,1-2.888,13v-.033c-.723,1.826-3.275,1.3-3.275,1.3C6.848,25.666,1.577,26.179.3,28.928c-2.142,4.6,7.664,13.7,21.9,20.33S49.71,57.543,51.858,52.95C53.078,50.314,50.37,46.193,45.152,41.905Zm-7.71,6.315c-.783,1.678-6.9.483-13.668-2.669S12.159,38.483,12.942,36.8s6.9-.486,13.665,2.666S38.225,46.545,37.442,48.22Z" transform="translate(-0.004 -6.698)" fill="#564bfb"/>
    </g>
  </g>
</svg>
