<svg width="84" height="64" viewBox="0 0 84 64" fill="none" xmlns="http://www.w3.org/2000/svg">
  <path
    d="M83.1061 21.7265C85.2061 15.4265 81.7061 8.52653 75.3061 6.92653C72.7061 6.32653 69.3061 5.92653 67.5061 8.12653C65.0061 11.2265 70.8061 15.0265 71.2061 16.8265C71.6061 18.4265 71.9061 22.1265 67.1061 27.5265C62.3061 33.1265 53.5061 37.8265 53.9061 38.2265C54.4061 38.7265 56.0061 41.2265 56.5061 41.1265C65.8061 40.5265 74.1061 36.1265 79.4061 28.8265C81.0061 26.6265 82.2061 24.2265 83.1061 21.7265Z"
    fill="url(#paint0_linear_1_5)"
  />
  <path
    d="M57.5061 49.4265C56.2061 47.2265 54.6061 45.3265 52.8061 43.5265C40.9061 31.9265 28.4061 24.5265 24.7061 23.3265C23.8061 23.0265 25.6061 20.6265 26.1061 20.7265C29.2061 21.5265 45.7061 30.1265 50.9061 35.9265C51.4061 36.5265 65.8061 27.1265 67.4061 19.6265C67.6061 18.5265 67.4061 17.4265 66.7061 16.5265C60.4061 7.42653 43.4061 2.02653 35.1061 0.126531C32.6061 -0.473469 30.2061 1.12653 29.6061 3.52653C29.6061 3.62653 29.6061 3.62653 29.6061 3.72653C28.7061 9.42653 26.3061 14.7265 22.8061 19.3265V19.2265C21.4061 21.3265 18.3061 20.0265 18.3061 20.0265C9.80614 16.4265 3.10613 15.7265 0.806135 18.9265C-2.99387 24.1265 7.00613 37.9265 23.1061 49.8265C39.2061 61.7265 55.5061 67.0265 59.3061 61.8265C60.9061 59.4265 60.5061 54.6265 57.5061 49.4265ZM42.4061 52.2265C41.0061 54.1265 33.6061 51.1265 26.0061 45.5265C18.2061 39.8265 13.1061 33.8265 14.5061 31.9265C15.9061 30.0265 23.2061 33.0265 30.9061 38.6265C38.7061 44.2265 43.8061 50.4265 42.4061 52.2265Z"
    fill="url(#paint1_linear_1_5)"
  />
  <defs>
    <linearGradient
      id="paint0_linear_1_5"
      x1="53.4726"
      y1="38.7157"
      x2="80.1505"
      y2="9.64269"
      gradientUnits="userSpaceOnUse"
    >
      <stop stop-color="#A1D7D8" />
      <stop offset="0.24" stop-color="#7FC9C7" />
      <stop offset="0.7675" stop-color="#28A79B" />
      <stop offset="1" stop-color="#009787" />
    </linearGradient>
    <linearGradient
      id="paint1_linear_1_5"
      x1="20.8661"
      y1="49.4041"
      x2="60.4099"
      y2="9.86251"
      gradientUnits="userSpaceOnUse"
    >
      <stop stop-color="#A1D7D8" />
      <stop offset="0.24" stop-color="#7FC9C7" />
      <stop offset="0.7675" stop-color="#28A79B" />
      <stop offset="1" stop-color="#009787" />
    </linearGradient>
  </defs>
</svg>
