<svg width="200" height="182" viewBox="0 0 200 182" fill="none" xmlns="http://www.w3.org/2000/svg">
<circle cx="99.9091" cy="90.9091" r="90.9091" fill="white"/>
<path d="M20.797 108.605C20.043 109.972 18.3915 110.16 15.7456 109.901C13.7559 109.704 11.9413 109.553 9.95128 108.451C8.55858 107.68 7.45602 106.637 6.6513 105.624C5.77925 104.526 4.56191 103.273 5.15856 102.029C5.97867 100.319 10.7204 98.8795 15.3249 101.234C20.3831 103.821 21.5347 107.269 20.797 108.605Z" fill="url(#paint0_linear_1818_36366)"/>
<path d="M183.57 99.5206C180.257 102.046 175 100.573 175 100.573C175 100.573 175.117 95.004 178.432 92.4803C181.745 89.9545 187 91.4263 187 91.4263C187 91.4263 186.883 96.9948 183.57 99.5206Z" fill="url(#paint1_linear_1818_36366)"/>
<path d="M14.9916 52.7212C17.906 56.3072 23.7789 55.993 23.7789 55.993C23.7789 55.993 24.9231 49.865 22.0056 46.2807C19.0913 42.6947 13.2212 43.0069 13.2212 43.0069C13.2212 43.0069 12.0773 49.1352 14.9916 52.7212Z" fill="url(#paint2_linear_1818_36366)"/>
<path d="M92 168C90.3431 168 89 166.657 89 165C89 163.343 90.3431 162 92 162C93.6569 162 95 163.343 95 165C95 166.657 93.6569 168 92 168Z" fill="#D1D5DB"/>
<path d="M115.5 146C113.567 146 112 144.657 112 143C112 141.343 113.567 140 115.5 140C117.433 140 119 141.343 119 143C119 144.657 117.433 146 115.5 146Z" fill="#D1D5DB"/>
<path d="M174.5 55C173.119 55 172 53.8807 172 52.5C172 51.1193 173.119 50 174.5 50C175.881 50 177 51.1193 177 52.5C177 53.8807 175.881 55 174.5 55Z" fill="#D1D5DB"/>
<path d="M6.53077 64.7935C6.9569 66.3838 6.01311 68.0185 4.42276 68.4446C2.8324 68.8708 1.19772 67.927 0.771584 66.3366C0.34545 64.7463 1.28924 63.1116 2.87959 62.6854C4.46994 62.2593 6.10463 63.2031 6.53077 64.7935Z" fill="#D1D5DB"/>
<path d="M51 39C48.7909 39 47 37.2091 47 35C47 32.7909 48.7909 31 51 31C53.2091 31 55 32.7909 55 35C55 37.2091 53.2091 39 51 39Z" fill="#D1D5DB"/>
<path d="M196.5 134C194.567 134 193 132.881 193 131.5C193 130.119 194.567 129 196.5 129C198.433 129 200 130.119 200 131.5C200 132.881 198.433 134 196.5 134Z" fill="#D1D5DB"/>
<path d="M20 155C20 157.761 18.2091 160 16 160C13.7909 160 12 157.761 12 155C12 152.239 13.7909 150 16 150C18.2091 150 20 152.239 20 155Z" fill="#D1D5DB"/>
<path d="M167.459 127H167.539C168.012 133.859 173 133.965 173 133.965C173 133.965 167.5 134.075 167.5 142C167.5 134.075 162 133.965 162 133.965C162 133.965 166.986 133.859 167.459 127Z" fill="#D1D5DB"/>
<path d="M88.0003 111.668H139.334M47.6667 156H150.333C158.433 156 165 149.384 165 141.222V37.7778C165 29.6163 158.433 23 150.333 23H77C68.8999 23 62.3333 29.6163 62.3333 37.7778V141.222C62.3333 149.384 55.7668 156 47.6667 156C39.5662 156 33 149.384 33 141.222V59.9446C33 51.7828 39.5662 45.1668 47.6667 45.1668H62.3333L47.6667 156ZM88.0003 52.5559H139.334H88.0003ZM88.0003 82.1115H139.334H88.0003Z" stroke="#D1D5DB" stroke-width="4" stroke-linecap="round" stroke-linejoin="round"/>
<path fill-rule="evenodd" clip-rule="evenodd" d="M34 100C34 117.121 47.8786 131 65.0002 131C82.1214 131 96 117.121 96 100C96 82.8789 82.1214 69 65.0002 69C47.8786 69 34 82.8789 34 100Z" fill="white" stroke="#3B82F6" stroke-width="6" stroke-linecap="round" stroke-linejoin="round"/>
<path d="M27 137L41 124" stroke="#3B82F6" stroke-width="6" stroke-linecap="round" stroke-linejoin="round"/>
<path fill-rule="evenodd" clip-rule="evenodd" d="M126 137.269V122.731C126 120.328 126.631 117.967 127.83 115.884C129.029 113.801 130.754 112.068 132.832 110.859L146.582 102.864C148.682 101.643 151.069 101 153.499 101C155.928 101 158.315 101.643 160.415 102.864L174.165 110.859C176.244 112.067 177.97 113.8 179.169 115.883C180.368 117.967 181 120.328 181 122.731V137.269C181 139.672 180.369 142.033 179.17 144.116C177.971 146.199 176.246 147.932 174.168 149.141L160.418 157.136C158.318 158.357 155.931 159 153.502 159C151.072 159 148.686 158.357 146.585 157.136L132.835 149.141C130.756 147.933 129.03 146.2 127.831 144.117C126.632 142.033 126 139.672 126 137.269Z" fill="#3B82F6"/>
<path d="M153.5 130.235V117M153.498 140.529C153.432 140.529 153.367 140.548 153.307 140.585C153.246 140.622 153.191 140.676 153.145 140.744C153.099 140.813 153.062 140.894 153.037 140.983C153.012 141.072 153 141.168 153 141.264C153 141.41 153.029 141.552 153.084 141.673C153.139 141.794 153.218 141.889 153.309 141.944C153.401 142 153.501 142.014 153.598 141.986C153.695 141.957 153.785 141.887 153.854 141.783C153.924 141.68 153.972 141.549 153.991 141.406C154.01 141.263 153.999 141.115 153.961 140.981C153.923 140.846 153.859 140.732 153.776 140.651C153.694 140.571 153.597 140.528 153.498 140.529Z" stroke="white" stroke-width="6" stroke-linecap="round" stroke-linejoin="round"/>
<defs>
<linearGradient id="paint0_linear_1818_36366" x1="15.717" y1="117.466" x2="8.78947" y2="86.8276" gradientUnits="userSpaceOnUse">
<stop stop-color="white"/>
<stop offset="1" stop-color="#EEEEEE"/>
</linearGradient>
<linearGradient id="paint1_linear_1818_36366" x1="170.611" y1="107.888" x2="196.961" y2="78.5735" gradientUnits="userSpaceOnUse">
<stop stop-color="white"/>
<stop offset="1" stop-color="#EEEEEE"/>
</linearGradient>
<linearGradient id="paint2_linear_1818_36366" x1="26.7362" y1="65.0919" x2="4.49592" y2="27.1452" gradientUnits="userSpaceOnUse">
<stop stop-color="white"/>
<stop offset="1" stop-color="#EEEEEE"/>
</linearGradient>
</defs>
</svg>
