<svg width="204" height="137" viewBox="0 0 204 137" fill="none" xmlns="http://www.w3.org/2000/svg">
<path d="M87.1487 99.7565H9.37333C5.30115 99.7565 2 103.058 2 107.13V127.865C2 131.937 5.30115 135.238 9.37333 135.238H87.1487C91.2208 135.238 94.522 131.937 94.522 127.865V107.13C94.522 103.058 91.2208 99.7565 87.1487 99.7565Z" fill="white" stroke="#E5E7EB" stroke-width="3"/>
<path d="M82.9872 110.8H35.1307C33.9689 110.8 33.0271 111.742 33.0271 112.903C33.0271 114.065 33.9689 115.007 35.1307 115.007H82.9872C84.149 115.007 85.0908 114.065 85.0908 112.903C85.0908 111.742 84.149 110.8 82.9872 110.8Z" fill="#E5E7EB"/>
<path d="M64.5809 119.745H35.1307C33.9689 119.745 33.0271 120.687 33.0271 121.849C33.0271 123.011 33.9689 123.952 35.1307 123.952H64.5809C65.7427 123.952 66.6845 123.011 66.6845 121.849C66.6845 120.687 65.7427 119.745 64.5809 119.745Z" fill="#E5E7EB"/>
<path fill-rule="evenodd" clip-rule="evenodd" d="M16.6631 126.442C11.7589 126.442 7.78271 122.409 7.78271 117.436C7.78271 112.463 11.7589 108.43 16.6631 108.43C21.5674 108.43 25.5435 112.463 25.5435 117.436C25.5435 122.409 21.5674 126.442 16.6631 126.442Z" fill="#3B82F6"/>
<path d="M19.7908 115.935L16.0394 119.938L13.7871 117.537" stroke="white" stroke-width="2" stroke-linecap="round" stroke-linejoin="round"/>
<path d="M194.627 99.7565H116.851C112.779 99.7565 109.478 103.058 109.478 107.13V127.865C109.478 131.937 112.779 135.238 116.851 135.238H194.627C198.699 135.238 202 131.937 202 127.865V107.13C202 103.058 198.699 99.7565 194.627 99.7565Z" fill="white" stroke="#E5E7EB" stroke-width="3"/>
<path d="M190.468 110.8H142.611C141.449 110.8 140.508 111.742 140.508 112.903C140.508 114.065 141.449 115.007 142.611 115.007H190.468C191.63 115.007 192.571 114.065 192.571 112.903C192.571 111.742 191.63 110.8 190.468 110.8Z" fill="#E5E7EB"/>
<path d="M172.062 119.745H142.611C141.449 119.745 140.508 120.687 140.508 121.849C140.508 123.011 141.449 123.952 142.611 123.952H172.062C173.223 123.952 174.165 123.011 174.165 121.849C174.165 120.687 173.223 119.745 172.062 119.745Z" fill="#E5E7EB"/>
<path fill-rule="evenodd" clip-rule="evenodd" d="M124.141 126.442C119.237 126.442 115.261 122.409 115.261 117.436C115.261 112.463 119.237 108.43 124.141 108.43C129.045 108.43 133.022 112.463 133.022 117.436C133.022 122.409 129.045 126.442 124.141 126.442Z" fill="#3B82F6"/>
<path d="M127.269 115.935L123.517 119.938L121.265 117.537" stroke="white" stroke-width="2" stroke-linecap="round" stroke-linejoin="round"/>
<path d="M194.627 54.6328H116.851C112.779 54.6328 109.478 57.934 109.478 62.0061V82.7414C109.478 86.8135 112.779 90.1147 116.851 90.1147H194.627C198.699 90.1147 202 86.8135 202 82.7414V62.0061C202 57.934 198.699 54.6328 194.627 54.6328Z" fill="white" stroke="#E5E7EB" stroke-width="3"/>
<path d="M190.468 65.6763H142.611C141.449 65.6763 140.508 66.6181 140.508 67.7798C140.508 68.9416 141.449 69.8834 142.611 69.8834H190.468C191.63 69.8834 192.571 68.9416 192.571 67.7798C192.571 66.6181 191.63 65.6763 190.468 65.6763Z" fill="#E5E7EB"/>
<path d="M172.062 74.6112H142.611C141.449 74.6112 140.508 75.553 140.508 76.7148C140.508 77.8765 141.449 78.8183 142.611 78.8183H172.062C173.223 78.8183 174.165 77.8765 174.165 76.7148C174.165 75.553 173.223 74.6112 172.062 74.6112Z" fill="#E5E7EB"/>
<path fill-rule="evenodd" clip-rule="evenodd" d="M124.141 81.3179C119.237 81.3179 115.261 77.2856 115.261 72.3125C115.261 67.339 119.237 63.3068 124.141 63.3068C129.045 63.3068 133.022 67.339 133.022 72.3125C133.022 77.2856 129.045 81.3179 124.141 81.3179Z" fill="#3B82F6"/>
<path d="M127.269 70.8118L123.517 74.8143L121.265 72.4133" stroke="white" stroke-width="4.431" stroke-linecap="round" stroke-linejoin="round"/>
<path d="M87.1487 54.6328H9.37333C5.30115 54.6328 2 57.934 2 62.0061V82.7414C2 86.8135 5.30115 90.1147 9.37333 90.1147H87.1487C91.2208 90.1147 94.522 86.8135 94.522 82.7414V62.0061C94.522 57.934 91.2208 54.6328 87.1487 54.6328Z" fill="white" stroke="#E5E7EB" stroke-width="3"/>
<path d="M82.9872 65.6763H35.1307C33.9689 65.6763 33.0271 66.6181 33.0271 67.7798C33.0271 68.9416 33.9689 69.8834 35.1307 69.8834H82.9872C84.149 69.8834 85.0908 68.9416 85.0908 67.7798C85.0908 66.6181 84.149 65.6763 82.9872 65.6763Z" fill="#E5E7EB"/>
<path d="M64.5809 74.6112H35.1307C33.9689 74.6112 33.0271 75.553 33.0271 76.7148C33.0271 77.8765 33.9689 78.8183 35.1307 78.8183H64.5809C65.7427 78.8183 66.6845 77.8765 66.6845 76.7148C66.6845 75.553 65.7427 74.6112 64.5809 74.6112Z" fill="#E5E7EB"/>
<path fill-rule="evenodd" clip-rule="evenodd" d="M16.6631 81.3179C11.7589 81.3179 7.78271 77.2856 7.78271 72.3125C7.78271 67.339 11.7589 63.3068 16.6631 63.3068C21.5674 63.3068 25.5435 67.339 25.5435 72.3125C25.5435 77.2856 21.5674 81.3179 16.6631 81.3179Z" fill="#3B82F6"/>
<path d="M19.7908 70.8118L16.0394 74.8143L13.7871 72.4133" stroke="white" stroke-width="2" stroke-linecap="round" stroke-linejoin="round"/>
<path d="M194.627 9.49866H116.851C112.779 9.49866 109.478 12.7998 109.478 16.872V37.6072C109.478 41.6794 112.779 44.9805 116.851 44.9805H194.627C198.699 44.9805 202 41.6794 202 37.6072V16.872C202 12.7998 198.699 9.49866 194.627 9.49866Z" fill="white" stroke="#E5E7EB" stroke-width="3"/>
<path d="M190.468 20.5421H142.611C141.449 20.5421 140.508 21.4839 140.508 22.6457C140.508 23.8075 141.449 24.7493 142.611 24.7493H190.468C191.63 24.7493 192.571 23.8075 192.571 22.6457C192.571 21.4839 191.63 20.5421 190.468 20.5421Z" fill="#E5E7EB"/>
<path d="M172.062 29.4875H142.611C141.449 29.4875 140.508 30.4294 140.508 31.5911C140.508 32.7529 141.449 33.6947 142.611 33.6947H172.062C173.223 33.6947 174.165 32.7529 174.165 31.5911C174.165 30.4294 173.223 29.4875 172.062 29.4875Z" fill="#E5E7EB"/>
<path fill-rule="evenodd" clip-rule="evenodd" d="M124.141 36.1837C119.237 36.1837 115.261 32.1515 115.261 27.1783C115.261 22.2049 119.237 18.1726 124.141 18.1726C129.045 18.1726 133.022 22.2049 133.022 27.1783C133.022 32.1515 129.045 36.1837 124.141 36.1837Z" fill="#3B82F6"/>
<path d="M127.269 25.6776L123.517 29.6802L121.265 27.2791" stroke="white" stroke-width="4.431" stroke-linecap="round" stroke-linejoin="round"/>
<path d="M87.1487 9.49866H9.37333C5.30115 9.49866 2 12.7998 2 16.872V37.6072C2 41.6794 5.30115 44.9805 9.37333 44.9805H87.1487C91.2208 44.9805 94.522 41.6794 94.522 37.6072V16.872C94.522 12.7998 91.2208 9.49866 87.1487 9.49866Z" fill="white" stroke="#E5E7EB" stroke-width="3"/>
<path d="M82.9872 20.5421H35.1307C33.9689 20.5421 33.0271 21.4839 33.0271 22.6457C33.0271 23.8075 33.9689 24.7493 35.1307 24.7493H82.9872C84.149 24.7493 85.0908 23.8075 85.0908 22.6457C85.0908 21.4839 84.149 20.5421 82.9872 20.5421Z" fill="#E5E7EB"/>
<path d="M64.5809 29.4875H35.1307C33.9689 29.4875 33.0271 30.4294 33.0271 31.5911C33.0271 32.7529 33.9689 33.6947 35.1307 33.6947H64.5809C65.7427 33.6947 66.6845 32.7529 66.6845 31.5911C66.6845 30.4294 65.7427 29.4875 64.5809 29.4875Z" fill="#E5E7EB"/>
<path fill-rule="evenodd" clip-rule="evenodd" d="M16.6631 36.1837C11.7589 36.1837 7.78271 32.1515 7.78271 27.1783C7.78271 22.2049 11.7589 18.1726 16.6631 18.1726C21.5674 18.1726 25.5435 22.2049 25.5435 27.1783C25.5435 32.1515 21.5674 36.1837 16.6631 36.1837Z" fill="#3B82F6"/>
<path d="M19.7908 25.6776L16.0394 29.6802L13.7871 27.2791" stroke="white" stroke-width="2" stroke-linecap="round" stroke-linejoin="round"/>
<path fill-rule="evenodd" clip-rule="evenodd" d="M138.49 95.0095H65.3242C57.2424 95.0095 50.6909 88.4654 50.6909 80.3926V14.6169C50.6909 6.54407 57.2424 0 65.3242 0H138.49C146.571 0 153.123 6.54407 153.123 14.6169V80.3926C153.123 88.4654 146.571 95.0095 138.49 95.0095Z" fill="#3B82F6"/>
<path d="M92.3241 60.3447L79.453 47.4733L92.3241 34.6022M111.632 34.6022L124.503 47.4733L111.632 60.3447" stroke="white" stroke-width="8" stroke-linecap="round" stroke-linejoin="round"/>
</svg>
